G04 Layer: BottomLayer*
G04 EasyEDA v6.4.17, 2021-03-27T11:51:15+01:00*
G04 529596ce29184b6dae0a6c6abc880a80,a5e8219e36ff45ba9783bf595b991e38,10*
G04 Gerber Generator version 0.2*
G04 Scale: 100 percent, Rotated: No, Reflected: No *
G04 Dimensions in millimeters *
G04 leading zeros omitted , absolute positions ,4 integer and 5 decimal *
%FSLAX45Y45*%
%MOMM*%

%ADD10C,0.2540*%
%ADD12R,1.5240X1.5240*%
%ADD13C,1.5240*%
%ADD14R,2.2098X2.0066*%
%ADD15C,1.8000*%
%ADD16R,1.8000X1.5748*%
%ADD17C,1.6000*%
%ADD18C,2.0000*%
%ADD19R,1.8000X1.8000*%
%ADD20C,1.3000*%
%ADD21R,1.6000X0.9000*%
%ADD22C,0.9000*%
%ADD23C,1.2700*%

%LPD*%
G36*
X35814Y-2667000D02*
G01*
X31902Y-2666238D01*
X28651Y-2664002D01*
X26416Y-2660751D01*
X25654Y-2656840D01*
X25654Y-35814D01*
X26416Y-31902D01*
X28651Y-28651D01*
X31902Y-26416D01*
X35814Y-25654D01*
X4434840Y-25654D01*
X4438751Y-26416D01*
X4442002Y-28651D01*
X4444238Y-31902D01*
X4445000Y-35814D01*
X4445000Y-1266088D01*
X4444339Y-1269746D01*
X4442358Y-1272895D01*
X3178048Y-2663698D01*
X3174593Y-2666136D01*
X3170529Y-2667000D01*
G37*

%LPC*%
G36*
X1634845Y-2633929D02*
G01*
X1855114Y-2633929D01*
X1868576Y-2633014D01*
X1881428Y-2630474D01*
X1893824Y-2626258D01*
X1905609Y-2620467D01*
X1916480Y-2613152D01*
X1926336Y-2604516D01*
X1929841Y-2600553D01*
X1933295Y-2597962D01*
X1937461Y-2597099D01*
X2028545Y-2597099D01*
X2037232Y-2596845D01*
X2045817Y-2596184D01*
X2054301Y-2595067D01*
X2062734Y-2593492D01*
X2071065Y-2591511D01*
X2079294Y-2589072D01*
X2087372Y-2586177D01*
X2095296Y-2582926D01*
X2103018Y-2579217D01*
X2110536Y-2575153D01*
X2117852Y-2570632D01*
X2124913Y-2565806D01*
X2131720Y-2560574D01*
X2138273Y-2554986D01*
X2144572Y-2549042D01*
X4142130Y-551434D01*
X4144772Y-549554D01*
X4168140Y-543610D01*
X4186631Y-537006D01*
X4204411Y-528624D01*
X4221226Y-518515D01*
X4237024Y-506780D01*
X4251604Y-493572D01*
X4264812Y-479043D01*
X4276496Y-463245D01*
X4286605Y-446379D01*
X4294987Y-428650D01*
X4301642Y-410108D01*
X4306417Y-391058D01*
X4309262Y-371652D01*
X4310227Y-351993D01*
X4309262Y-332384D01*
X4306417Y-312928D01*
X4301642Y-293878D01*
X4294987Y-275386D01*
X4286605Y-257606D01*
X4276496Y-240741D01*
X4264812Y-224993D01*
X4251604Y-210413D01*
X4237024Y-197205D01*
X4221226Y-185521D01*
X4204411Y-175412D01*
X4186631Y-167030D01*
X4168140Y-160375D01*
X4149090Y-155600D01*
X4129633Y-152704D01*
X4109974Y-151739D01*
X4090365Y-152704D01*
X4070959Y-155600D01*
X4051858Y-160375D01*
X4033367Y-167030D01*
X4015587Y-175412D01*
X3998772Y-185521D01*
X3982974Y-197205D01*
X3968394Y-210413D01*
X3955186Y-224993D01*
X3943502Y-240741D01*
X3933393Y-257606D01*
X3925011Y-275386D01*
X3918356Y-293878D01*
X3912463Y-317246D01*
X3910533Y-319887D01*
X1963826Y-2266594D01*
X1960524Y-2268778D01*
X1956663Y-2269591D01*
X1937461Y-2269591D01*
X1933295Y-2268677D01*
X1929841Y-2266086D01*
X1926336Y-2262124D01*
X1916480Y-2253488D01*
X1913229Y-2251303D01*
X1910842Y-2249068D01*
X1909267Y-2246122D01*
X1908759Y-2242870D01*
X1908759Y-1883054D01*
X1909521Y-1879193D01*
X1911705Y-1875891D01*
X2076856Y-1710740D01*
X2079447Y-1708861D01*
X2102815Y-1702917D01*
X2121306Y-1696313D01*
X2139086Y-1687880D01*
X2155952Y-1677771D01*
X2171750Y-1666087D01*
X2186279Y-1652879D01*
X2199487Y-1638350D01*
X2211171Y-1622552D01*
X2221280Y-1605686D01*
X2229713Y-1587906D01*
X2236317Y-1569415D01*
X2241092Y-1550365D01*
X2243988Y-1530908D01*
X2244953Y-1511300D01*
X2243988Y-1491691D01*
X2241092Y-1472234D01*
X2236317Y-1453184D01*
X2229662Y-1434642D01*
X2229104Y-1430832D01*
X2229967Y-1427073D01*
X2232202Y-1423873D01*
X2235454Y-1421790D01*
X2239264Y-1421079D01*
X2604617Y-1421079D01*
X2613355Y-1420825D01*
X2621889Y-1420164D01*
X2630373Y-1419047D01*
X2638806Y-1417472D01*
X2647137Y-1415491D01*
X2655366Y-1413052D01*
X2663444Y-1410157D01*
X2671368Y-1406906D01*
X2679090Y-1403197D01*
X2686659Y-1399133D01*
X2693974Y-1394612D01*
X2701036Y-1389786D01*
X2707843Y-1384554D01*
X2714345Y-1378966D01*
X2720644Y-1373022D01*
X3542233Y-551434D01*
X3544824Y-549554D01*
X3568141Y-543610D01*
X3586632Y-537006D01*
X3604412Y-528624D01*
X3621227Y-518515D01*
X3637026Y-506780D01*
X3651605Y-493572D01*
X3664813Y-479043D01*
X3676497Y-463245D01*
X3686606Y-446379D01*
X3694988Y-428650D01*
X3701643Y-410108D01*
X3706418Y-391058D01*
X3709263Y-371652D01*
X3710228Y-351993D01*
X3709263Y-332384D01*
X3706418Y-312928D01*
X3701643Y-293878D01*
X3694988Y-275386D01*
X3686606Y-257606D01*
X3676497Y-240741D01*
X3664813Y-224993D01*
X3651605Y-210413D01*
X3637026Y-197205D01*
X3621227Y-185521D01*
X3604412Y-175412D01*
X3586632Y-167030D01*
X3568141Y-160375D01*
X3549091Y-155600D01*
X3529634Y-152704D01*
X3510026Y-151739D01*
X3490366Y-152704D01*
X3470960Y-155600D01*
X3451860Y-160375D01*
X3433368Y-167030D01*
X3415588Y-175412D01*
X3398774Y-185521D01*
X3382975Y-197205D01*
X3368395Y-210413D01*
X3355187Y-224993D01*
X3343503Y-240741D01*
X3333394Y-257606D01*
X3325012Y-275386D01*
X3318357Y-293878D01*
X3312414Y-317347D01*
X3310534Y-319938D01*
X2539898Y-1090574D01*
X2536596Y-1092758D01*
X2532735Y-1093571D01*
X2239264Y-1093571D01*
X2235454Y-1092809D01*
X2232202Y-1090726D01*
X2229967Y-1087526D01*
X2229104Y-1083767D01*
X2229662Y-1079957D01*
X2236317Y-1061415D01*
X2241092Y-1042365D01*
X2243988Y-1022908D01*
X2244953Y-1003300D01*
X2243988Y-983691D01*
X2241092Y-964234D01*
X2236317Y-945184D01*
X2229713Y-926693D01*
X2221280Y-908913D01*
X2211171Y-892048D01*
X2199487Y-876249D01*
X2186279Y-861720D01*
X2171750Y-848512D01*
X2155952Y-836828D01*
X2139086Y-826719D01*
X2121306Y-818286D01*
X2102815Y-811682D01*
X2083765Y-806907D01*
X2064308Y-804011D01*
X2044700Y-803046D01*
X2025091Y-804011D01*
X2005634Y-806907D01*
X1986584Y-811682D01*
X1968093Y-818286D01*
X1950313Y-826719D01*
X1933448Y-836828D01*
X1913280Y-851560D01*
X1909622Y-852271D01*
X1121613Y-852271D01*
X1118412Y-851712D01*
X1097686Y-839419D01*
X1079906Y-830986D01*
X1061415Y-824382D01*
X1042365Y-819607D01*
X1022908Y-816711D01*
X1003300Y-815746D01*
X983691Y-816711D01*
X964234Y-819607D01*
X945184Y-824382D01*
X926693Y-830986D01*
X908913Y-839419D01*
X892048Y-849528D01*
X876249Y-861212D01*
X861720Y-874420D01*
X848512Y-888949D01*
X836828Y-904748D01*
X826719Y-921613D01*
X818286Y-939393D01*
X811682Y-957884D01*
X806907Y-976934D01*
X804011Y-996391D01*
X803046Y-1016000D01*
X804011Y-1035608D01*
X806907Y-1055065D01*
X811682Y-1074115D01*
X818286Y-1092606D01*
X826719Y-1110386D01*
X836828Y-1127252D01*
X848512Y-1143050D01*
X861720Y-1157579D01*
X876249Y-1170787D01*
X892048Y-1182471D01*
X908913Y-1192580D01*
X926693Y-1201013D01*
X945184Y-1207617D01*
X964234Y-1212392D01*
X983691Y-1215288D01*
X1003300Y-1216253D01*
X1022908Y-1215288D01*
X1042365Y-1212392D01*
X1050899Y-1210259D01*
X1055268Y-1210157D01*
X1059281Y-1211834D01*
X1062177Y-1215085D01*
X1063498Y-1219301D01*
X1062888Y-1223619D01*
X1060551Y-1227277D01*
X971143Y-1316685D01*
X968552Y-1318564D01*
X945184Y-1324508D01*
X926693Y-1331112D01*
X908913Y-1339545D01*
X892048Y-1349654D01*
X876249Y-1361338D01*
X861720Y-1374546D01*
X848512Y-1389075D01*
X836828Y-1404874D01*
X826719Y-1421739D01*
X818286Y-1439519D01*
X811682Y-1458010D01*
X806907Y-1477060D01*
X804011Y-1496517D01*
X803046Y-1516126D01*
X804011Y-1535734D01*
X806907Y-1555191D01*
X811682Y-1574241D01*
X818286Y-1592732D01*
X826719Y-1610512D01*
X839012Y-1631238D01*
X839571Y-1634439D01*
X839571Y-2037130D01*
X839012Y-2040382D01*
X837437Y-2043277D01*
X835050Y-2045563D01*
X824179Y-2052828D01*
X814324Y-2061464D01*
X805688Y-2071319D01*
X798372Y-2082190D01*
X792581Y-2093975D01*
X788365Y-2106371D01*
X785825Y-2119223D01*
X784961Y-2132685D01*
X784961Y-2332634D01*
X785825Y-2346096D01*
X788365Y-2358948D01*
X792581Y-2371344D01*
X798372Y-2383129D01*
X805688Y-2394000D01*
X814324Y-2403856D01*
X824179Y-2412492D01*
X835050Y-2419807D01*
X846836Y-2425598D01*
X859231Y-2429814D01*
X872083Y-2432354D01*
X885545Y-2433269D01*
X1105814Y-2433269D01*
X1119276Y-2432354D01*
X1132128Y-2429814D01*
X1144524Y-2425598D01*
X1156309Y-2419807D01*
X1167180Y-2412492D01*
X1177036Y-2403856D01*
X1185672Y-2394000D01*
X1192987Y-2383129D01*
X1198778Y-2371344D01*
X1202994Y-2358948D01*
X1205534Y-2346096D01*
X1206449Y-2332634D01*
X1206449Y-2132685D01*
X1205534Y-2119223D01*
X1202994Y-2106371D01*
X1198778Y-2093975D01*
X1192987Y-2082190D01*
X1185672Y-2071319D01*
X1177036Y-2061464D01*
X1170533Y-2055723D01*
X1167942Y-2052269D01*
X1167079Y-2048103D01*
X1167079Y-1634439D01*
X1167587Y-1631238D01*
X1179880Y-1610512D01*
X1188313Y-1592732D01*
X1194917Y-1574241D01*
X1200861Y-1550873D01*
X1202740Y-1548282D01*
X1326997Y-1424025D01*
X1330299Y-1421841D01*
X1334160Y-1421079D01*
X1850136Y-1421079D01*
X1853946Y-1421790D01*
X1857197Y-1423873D01*
X1859432Y-1427073D01*
X1860296Y-1430832D01*
X1859737Y-1434642D01*
X1853082Y-1453184D01*
X1847138Y-1476552D01*
X1845259Y-1479143D01*
X1629257Y-1695145D01*
X1623314Y-1701444D01*
X1617726Y-1707946D01*
X1612493Y-1714754D01*
X1607667Y-1721815D01*
X1603146Y-1729130D01*
X1599082Y-1736699D01*
X1595374Y-1744421D01*
X1592122Y-1752346D01*
X1589227Y-1760423D01*
X1586788Y-1768652D01*
X1584807Y-1776984D01*
X1583232Y-1785416D01*
X1582115Y-1793900D01*
X1581454Y-1802434D01*
X1581251Y-1811172D01*
X1581251Y-2242870D01*
X1580692Y-2246122D01*
X1579118Y-2249068D01*
X1576730Y-2251303D01*
X1573479Y-2253488D01*
X1563624Y-2262124D01*
X1554988Y-2271979D01*
X1547672Y-2282850D01*
X1541881Y-2294636D01*
X1537665Y-2307031D01*
X1535125Y-2319883D01*
X1534261Y-2333345D01*
X1534261Y-2533294D01*
X1535125Y-2546756D01*
X1537665Y-2559608D01*
X1541881Y-2572004D01*
X1547672Y-2583789D01*
X1554988Y-2594660D01*
X1563624Y-2604516D01*
X1573479Y-2613152D01*
X1584350Y-2620467D01*
X1596136Y-2626258D01*
X1608531Y-2630474D01*
X1621383Y-2633014D01*
G37*
G36*
X325577Y-580186D02*
G01*
X347929Y-578713D01*
X370078Y-575360D01*
X391871Y-570128D01*
X413105Y-563016D01*
X433628Y-554126D01*
X453339Y-543509D01*
X472084Y-531215D01*
X489661Y-517347D01*
X505968Y-502005D01*
X520954Y-485343D01*
X534416Y-467461D01*
X546303Y-448513D01*
X556514Y-428548D01*
X564946Y-407822D01*
X571601Y-386435D01*
X576376Y-364591D01*
X579272Y-342392D01*
X580237Y-319989D01*
X579272Y-297637D01*
X576376Y-275437D01*
X571601Y-253542D01*
X564946Y-232156D01*
X556514Y-211429D01*
X546303Y-191516D01*
X534416Y-172516D01*
X520954Y-154635D01*
X505968Y-137972D01*
X489661Y-122631D01*
X472084Y-108813D01*
X453339Y-96520D01*
X433628Y-85852D01*
X413105Y-76962D01*
X391871Y-69850D01*
X370078Y-64617D01*
X347929Y-61264D01*
X325577Y-59791D01*
X303225Y-60299D01*
X280924Y-62687D01*
X258978Y-67005D01*
X237439Y-73202D01*
X216560Y-81178D01*
X196392Y-90982D01*
X177190Y-102463D01*
X159004Y-115519D01*
X142036Y-130149D01*
X126339Y-146151D01*
X112115Y-163423D01*
X99415Y-181864D01*
X88392Y-201371D01*
X79044Y-221691D01*
X71475Y-242773D01*
X65735Y-264414D01*
X61925Y-286512D01*
X59994Y-308813D01*
X59994Y-331216D01*
X61925Y-353517D01*
X65735Y-375564D01*
X71475Y-397205D01*
X79044Y-418287D01*
X88392Y-438658D01*
X99415Y-458114D01*
X112115Y-476554D01*
X126339Y-493877D01*
X142036Y-509879D01*
X159004Y-524459D01*
X177190Y-537565D01*
X196392Y-548995D01*
X216560Y-558800D01*
X237439Y-566826D01*
X258978Y-572973D01*
X280924Y-577291D01*
X303225Y-579678D01*
G37*

%LPD*%
G36*
X35814Y-7974330D02*
G01*
X31902Y-7973568D01*
X28651Y-7971383D01*
X26416Y-7968081D01*
X25654Y-7964170D01*
X25654Y-2943860D01*
X26416Y-2939948D01*
X28651Y-2936697D01*
X31902Y-2934462D01*
X35814Y-2933700D01*
X3300882Y-2933700D01*
X3302660Y-2932938D01*
X4698339Y-1397762D01*
X4699000Y-1396136D01*
X4699000Y-35814D01*
X4699762Y-31902D01*
X4701997Y-28651D01*
X4705248Y-26416D01*
X4709160Y-25654D01*
X8364169Y-25654D01*
X8368080Y-26416D01*
X8371382Y-28651D01*
X8373567Y-31902D01*
X8374329Y-35814D01*
X8374329Y-7964170D01*
X8373567Y-7968081D01*
X8371382Y-7971383D01*
X8368080Y-7973568D01*
X8364169Y-7974330D01*
G37*

%LPC*%
G36*
X8070596Y-7865414D02*
G01*
X8089392Y-7865414D01*
X8108086Y-7863484D01*
X8126526Y-7859725D01*
X8144459Y-7854086D01*
X8161731Y-7846669D01*
X8178190Y-7837525D01*
X8193633Y-7826806D01*
X8207908Y-7814564D01*
X8220862Y-7800898D01*
X8232343Y-7786065D01*
X8242300Y-7770114D01*
X8250580Y-7753197D01*
X8257133Y-7735570D01*
X8261858Y-7717383D01*
X8264702Y-7698790D01*
X8265617Y-7679994D01*
X8264702Y-7661198D01*
X8261858Y-7642606D01*
X8257133Y-7624419D01*
X8250580Y-7606792D01*
X8242300Y-7589926D01*
X8232343Y-7573924D01*
X8220862Y-7559090D01*
X8207908Y-7545425D01*
X8193633Y-7533182D01*
X8178190Y-7522464D01*
X8161731Y-7513320D01*
X8144459Y-7505903D01*
X8126526Y-7500264D01*
X8108086Y-7496505D01*
X8089392Y-7494574D01*
X8070596Y-7494574D01*
X8051901Y-7496505D01*
X8033461Y-7500264D01*
X8015528Y-7505903D01*
X7998256Y-7513320D01*
X7981797Y-7522464D01*
X7966354Y-7533182D01*
X7952079Y-7545425D01*
X7939125Y-7559090D01*
X7927644Y-7573924D01*
X7917688Y-7589926D01*
X7909407Y-7606792D01*
X7902854Y-7624419D01*
X7898180Y-7642606D01*
X7895336Y-7661198D01*
X7894370Y-7679994D01*
X7895336Y-7698790D01*
X7898180Y-7717383D01*
X7902854Y-7735570D01*
X7909407Y-7753197D01*
X7917688Y-7770114D01*
X7927644Y-7786065D01*
X7939125Y-7800898D01*
X7952079Y-7814564D01*
X7966354Y-7826806D01*
X7981797Y-7837525D01*
X7998256Y-7846669D01*
X8015528Y-7854086D01*
X8033461Y-7859725D01*
X8051901Y-7863484D01*
G37*
G36*
X310591Y-7865414D02*
G01*
X329387Y-7865414D01*
X348132Y-7863484D01*
X366522Y-7859725D01*
X384454Y-7854086D01*
X401777Y-7846669D01*
X418185Y-7837525D01*
X433628Y-7826806D01*
X447903Y-7814564D01*
X460857Y-7800898D01*
X472389Y-7786065D01*
X482295Y-7770114D01*
X490575Y-7753197D01*
X497128Y-7735570D01*
X501853Y-7717383D01*
X504698Y-7698790D01*
X505663Y-7679994D01*
X504698Y-7661198D01*
X501853Y-7642606D01*
X497128Y-7624419D01*
X490575Y-7606792D01*
X482295Y-7589926D01*
X472389Y-7573924D01*
X460857Y-7559090D01*
X447903Y-7545425D01*
X433628Y-7533182D01*
X418185Y-7522464D01*
X401777Y-7513320D01*
X384454Y-7505903D01*
X366522Y-7500264D01*
X348132Y-7496505D01*
X329387Y-7494574D01*
X310591Y-7494574D01*
X291896Y-7496505D01*
X273456Y-7500264D01*
X255524Y-7505903D01*
X238252Y-7513320D01*
X221792Y-7522464D01*
X206349Y-7533182D01*
X192074Y-7545425D01*
X179120Y-7559090D01*
X167640Y-7573924D01*
X157683Y-7589926D01*
X149402Y-7606792D01*
X142849Y-7624419D01*
X138176Y-7642606D01*
X135331Y-7661198D01*
X134366Y-7679994D01*
X135331Y-7698790D01*
X138176Y-7717383D01*
X142849Y-7735570D01*
X149402Y-7753197D01*
X157683Y-7770114D01*
X167640Y-7786065D01*
X179120Y-7800898D01*
X192074Y-7814564D01*
X206349Y-7826806D01*
X221792Y-7837525D01*
X238252Y-7846669D01*
X255524Y-7854086D01*
X273456Y-7859725D01*
X291896Y-7863484D01*
G37*
G36*
X1943607Y-7671053D02*
G01*
X6984492Y-7671053D01*
X6992467Y-7670292D01*
X6999681Y-7668107D01*
X7006285Y-7664551D01*
X7012482Y-7659471D01*
X7278471Y-7393482D01*
X7283551Y-7387285D01*
X7287107Y-7380681D01*
X7289292Y-7373467D01*
X7290053Y-7365492D01*
X7290053Y-7238238D01*
X7290816Y-7234377D01*
X7293000Y-7231075D01*
X7309307Y-7221372D01*
X7320025Y-7212939D01*
X7329474Y-7203135D01*
X7337552Y-7192213D01*
X7344054Y-7180275D01*
X7348981Y-7167575D01*
X7352131Y-7154316D01*
X7353452Y-7140803D01*
X7352995Y-7127189D01*
X7350759Y-7113778D01*
X7346746Y-7100824D01*
X7341006Y-7088479D01*
X7333691Y-7076998D01*
X7324902Y-7066584D01*
X7314793Y-7057491D01*
X7303617Y-7049770D01*
X7291476Y-7043674D01*
X7278624Y-7039203D01*
X7265263Y-7036460D01*
X7251700Y-7035546D01*
X7238136Y-7036460D01*
X7224775Y-7039203D01*
X7211923Y-7043674D01*
X7199782Y-7049770D01*
X7188606Y-7057491D01*
X7178497Y-7066584D01*
X7169708Y-7076998D01*
X7162393Y-7088479D01*
X7156653Y-7100824D01*
X7152640Y-7113778D01*
X7150404Y-7127189D01*
X7149947Y-7140803D01*
X7151268Y-7154316D01*
X7154418Y-7167575D01*
X7159345Y-7180275D01*
X7165848Y-7192213D01*
X7173925Y-7203135D01*
X7183374Y-7212939D01*
X7194092Y-7221372D01*
X7210399Y-7231075D01*
X7212584Y-7234377D01*
X7213346Y-7238238D01*
X7213346Y-7345883D01*
X7212584Y-7349794D01*
X7210348Y-7353096D01*
X6972096Y-7591348D01*
X6968794Y-7593584D01*
X6964883Y-7594346D01*
X1963216Y-7594346D01*
X1959305Y-7593584D01*
X1956003Y-7591348D01*
X1628851Y-7264196D01*
X1626616Y-7260894D01*
X1625854Y-7256983D01*
X1625854Y-7225385D01*
X1626514Y-7221778D01*
X1628495Y-7218578D01*
X1631442Y-7216343D01*
X1639417Y-7212330D01*
X1650593Y-7204608D01*
X1660702Y-7195515D01*
X1669491Y-7185101D01*
X1676806Y-7173620D01*
X1682546Y-7161275D01*
X1686560Y-7148322D01*
X1688795Y-7134910D01*
X1689252Y-7121296D01*
X1687931Y-7107783D01*
X1684782Y-7094524D01*
X1679854Y-7081824D01*
X1673352Y-7069886D01*
X1665274Y-7058964D01*
X1655825Y-7049160D01*
X1645107Y-7040727D01*
X1633423Y-7033818D01*
X1620926Y-7028484D01*
X1607769Y-7024928D01*
X1594307Y-7023100D01*
X1580692Y-7023100D01*
X1567230Y-7024928D01*
X1554073Y-7028484D01*
X1541576Y-7033818D01*
X1529892Y-7040727D01*
X1519174Y-7049160D01*
X1509725Y-7058964D01*
X1501648Y-7069886D01*
X1495145Y-7081824D01*
X1490218Y-7094524D01*
X1487068Y-7107783D01*
X1485747Y-7121296D01*
X1486204Y-7134910D01*
X1488440Y-7148322D01*
X1492453Y-7161275D01*
X1498193Y-7173620D01*
X1505508Y-7185101D01*
X1514297Y-7195515D01*
X1524406Y-7204608D01*
X1535582Y-7212330D01*
X1543558Y-7216343D01*
X1546504Y-7218578D01*
X1548485Y-7221778D01*
X1549146Y-7225385D01*
X1549146Y-7276592D01*
X1549908Y-7284567D01*
X1552092Y-7291781D01*
X1555648Y-7298385D01*
X1560728Y-7304582D01*
X1915617Y-7659471D01*
X1921814Y-7664551D01*
X1928418Y-7668107D01*
X1935632Y-7670292D01*
G37*
G36*
X2311908Y-7531353D02*
G01*
X6870192Y-7531353D01*
X6878167Y-7530592D01*
X6885381Y-7528407D01*
X6891985Y-7524851D01*
X6898182Y-7519771D01*
X7024471Y-7393482D01*
X7029551Y-7387285D01*
X7033107Y-7380681D01*
X7035292Y-7373467D01*
X7036053Y-7365492D01*
X7036053Y-7238238D01*
X7036816Y-7234377D01*
X7039000Y-7231075D01*
X7055307Y-7221372D01*
X7066025Y-7212939D01*
X7075474Y-7203135D01*
X7083552Y-7192213D01*
X7090054Y-7180275D01*
X7094981Y-7167575D01*
X7098131Y-7154316D01*
X7099452Y-7140803D01*
X7098995Y-7127189D01*
X7096759Y-7113778D01*
X7092746Y-7100824D01*
X7087006Y-7088479D01*
X7079691Y-7076998D01*
X7070902Y-7066584D01*
X7060793Y-7057491D01*
X7049617Y-7049770D01*
X7037476Y-7043674D01*
X7024624Y-7039203D01*
X7011263Y-7036460D01*
X6997700Y-7035546D01*
X6984136Y-7036460D01*
X6970775Y-7039203D01*
X6957923Y-7043674D01*
X6945782Y-7049770D01*
X6934606Y-7057491D01*
X6924497Y-7066584D01*
X6915708Y-7076998D01*
X6908393Y-7088479D01*
X6902653Y-7100824D01*
X6898640Y-7113778D01*
X6896404Y-7127189D01*
X6895947Y-7140803D01*
X6897268Y-7154316D01*
X6900418Y-7167575D01*
X6905345Y-7180275D01*
X6911848Y-7192213D01*
X6919925Y-7203135D01*
X6929374Y-7212939D01*
X6940092Y-7221372D01*
X6956399Y-7231075D01*
X6958584Y-7234377D01*
X6959346Y-7238238D01*
X6959346Y-7345883D01*
X6958584Y-7349794D01*
X6956348Y-7353096D01*
X6857796Y-7451648D01*
X6854494Y-7453884D01*
X6850583Y-7454646D01*
X2331516Y-7454646D01*
X2327605Y-7453884D01*
X2324303Y-7451648D01*
X2136851Y-7264196D01*
X2134616Y-7260894D01*
X2133854Y-7256983D01*
X2133854Y-7225385D01*
X2134514Y-7221778D01*
X2136495Y-7218578D01*
X2139442Y-7216343D01*
X2147417Y-7212330D01*
X2158593Y-7204608D01*
X2168702Y-7195515D01*
X2177491Y-7185101D01*
X2184806Y-7173620D01*
X2190546Y-7161275D01*
X2194560Y-7148322D01*
X2196795Y-7134910D01*
X2197252Y-7121296D01*
X2195931Y-7107783D01*
X2192782Y-7094524D01*
X2187854Y-7081824D01*
X2181352Y-7069886D01*
X2173274Y-7058964D01*
X2163826Y-7049160D01*
X2153107Y-7040727D01*
X2141423Y-7033818D01*
X2128926Y-7028484D01*
X2115769Y-7024928D01*
X2102307Y-7023100D01*
X2088692Y-7023100D01*
X2075230Y-7024928D01*
X2062073Y-7028484D01*
X2049576Y-7033818D01*
X2037892Y-7040727D01*
X2027174Y-7049160D01*
X2017725Y-7058964D01*
X2009648Y-7069886D01*
X2003145Y-7081824D01*
X1998218Y-7094524D01*
X1995068Y-7107783D01*
X1993747Y-7121296D01*
X1994204Y-7134910D01*
X1996439Y-7148322D01*
X2000453Y-7161275D01*
X2006193Y-7173620D01*
X2013508Y-7185101D01*
X2022297Y-7195515D01*
X2032406Y-7204608D01*
X2043582Y-7212330D01*
X2051557Y-7216343D01*
X2054504Y-7218578D01*
X2056485Y-7221778D01*
X2057146Y-7225385D01*
X2057146Y-7276592D01*
X2057907Y-7284567D01*
X2060092Y-7291781D01*
X2063648Y-7298385D01*
X2068728Y-7304582D01*
X2283917Y-7519771D01*
X2290114Y-7524851D01*
X2296718Y-7528407D01*
X2303932Y-7530592D01*
G37*
G36*
X5588000Y-7240320D02*
G01*
X5602478Y-7239406D01*
X5616752Y-7236714D01*
X5630570Y-7232192D01*
X5643727Y-7226046D01*
X5655970Y-7218273D01*
X5667146Y-7208977D01*
X5677103Y-7198410D01*
X5685637Y-7186675D01*
X5692648Y-7173925D01*
X5697982Y-7160412D01*
X5701588Y-7146391D01*
X5703417Y-7131964D01*
X5703417Y-7117435D01*
X5701588Y-7103008D01*
X5697982Y-7088987D01*
X5692648Y-7075474D01*
X5685637Y-7062724D01*
X5677103Y-7050989D01*
X5667146Y-7040422D01*
X5655970Y-7031126D01*
X5643727Y-7023353D01*
X5630570Y-7017207D01*
X5616752Y-7012686D01*
X5602478Y-7009993D01*
X5588000Y-7009079D01*
X5573522Y-7009993D01*
X5559247Y-7012686D01*
X5545429Y-7017207D01*
X5532272Y-7023353D01*
X5520029Y-7031126D01*
X5508853Y-7040422D01*
X5498896Y-7050989D01*
X5490362Y-7062724D01*
X5483352Y-7075474D01*
X5478018Y-7088987D01*
X5474411Y-7103008D01*
X5472582Y-7117435D01*
X5472582Y-7131964D01*
X5474411Y-7146391D01*
X5478018Y-7160412D01*
X5483352Y-7173925D01*
X5490362Y-7186675D01*
X5498896Y-7198410D01*
X5508853Y-7208977D01*
X5520029Y-7218273D01*
X5532272Y-7226046D01*
X5545429Y-7232192D01*
X5559247Y-7236714D01*
X5573522Y-7239406D01*
G37*
G36*
X6280150Y-7239253D02*
G01*
X6311341Y-7239253D01*
X6317589Y-7238542D01*
X6323025Y-7236663D01*
X6327851Y-7233615D01*
X6331915Y-7229551D01*
X6334963Y-7224725D01*
X6336842Y-7219289D01*
X6337554Y-7213041D01*
X6337554Y-7181850D01*
X6280150Y-7181850D01*
G37*
G36*
X6160058Y-7239253D02*
G01*
X6191250Y-7239253D01*
X6191250Y-7181850D01*
X6133846Y-7181850D01*
X6133846Y-7213041D01*
X6134557Y-7219289D01*
X6136436Y-7224725D01*
X6139484Y-7229551D01*
X6143548Y-7233615D01*
X6148374Y-7236663D01*
X6153810Y-7238542D01*
G37*
G36*
X6736892Y-7239000D02*
G01*
X6750507Y-7239000D01*
X6763969Y-7237171D01*
X6777126Y-7233615D01*
X6789623Y-7228281D01*
X6801307Y-7221372D01*
X6812025Y-7212939D01*
X6821474Y-7203135D01*
X6829552Y-7192213D01*
X6836054Y-7180275D01*
X6840981Y-7167575D01*
X6844131Y-7154316D01*
X6845452Y-7140803D01*
X6844995Y-7127189D01*
X6842759Y-7113778D01*
X6838746Y-7100824D01*
X6833006Y-7088479D01*
X6825691Y-7076998D01*
X6816902Y-7066584D01*
X6806793Y-7057491D01*
X6795617Y-7049770D01*
X6783476Y-7043674D01*
X6770624Y-7039203D01*
X6757263Y-7036460D01*
X6743700Y-7035546D01*
X6730136Y-7036460D01*
X6716775Y-7039203D01*
X6703923Y-7043674D01*
X6691782Y-7049770D01*
X6680606Y-7057491D01*
X6670497Y-7066584D01*
X6661708Y-7076998D01*
X6654393Y-7088479D01*
X6648653Y-7100824D01*
X6644640Y-7113778D01*
X6642404Y-7127189D01*
X6641947Y-7140803D01*
X6643268Y-7154316D01*
X6646418Y-7167575D01*
X6651345Y-7180275D01*
X6657848Y-7192213D01*
X6665925Y-7203135D01*
X6675374Y-7212939D01*
X6686092Y-7221372D01*
X6697776Y-7228281D01*
X6710273Y-7233615D01*
X6723430Y-7237171D01*
G37*
G36*
X7752892Y-7239000D02*
G01*
X7766507Y-7239000D01*
X7779969Y-7237171D01*
X7793126Y-7233615D01*
X7805623Y-7228281D01*
X7817307Y-7221372D01*
X7828025Y-7212939D01*
X7837474Y-7203135D01*
X7845552Y-7192213D01*
X7852054Y-7180275D01*
X7856981Y-7167575D01*
X7860131Y-7154316D01*
X7861452Y-7140803D01*
X7860995Y-7127189D01*
X7858759Y-7113778D01*
X7854746Y-7100824D01*
X7849006Y-7088479D01*
X7841691Y-7076998D01*
X7832902Y-7066584D01*
X7822793Y-7057491D01*
X7811617Y-7049770D01*
X7799476Y-7043674D01*
X7786624Y-7039203D01*
X7773263Y-7036460D01*
X7759700Y-7035546D01*
X7746136Y-7036460D01*
X7732775Y-7039203D01*
X7719923Y-7043674D01*
X7707782Y-7049770D01*
X7696606Y-7057491D01*
X7686497Y-7066584D01*
X7677708Y-7076998D01*
X7670393Y-7088479D01*
X7664653Y-7100824D01*
X7660640Y-7113778D01*
X7658404Y-7127189D01*
X7657947Y-7140803D01*
X7659268Y-7154316D01*
X7662418Y-7167575D01*
X7667345Y-7180275D01*
X7673848Y-7192213D01*
X7681925Y-7203135D01*
X7691374Y-7212939D01*
X7702092Y-7221372D01*
X7713776Y-7228281D01*
X7726273Y-7233615D01*
X7739430Y-7237171D01*
G37*
G36*
X7498892Y-7239000D02*
G01*
X7512507Y-7239000D01*
X7525969Y-7237171D01*
X7539126Y-7233615D01*
X7551623Y-7228281D01*
X7563307Y-7221372D01*
X7574025Y-7212939D01*
X7583474Y-7203135D01*
X7591552Y-7192213D01*
X7598054Y-7180275D01*
X7602981Y-7167575D01*
X7606131Y-7154316D01*
X7607452Y-7140803D01*
X7606995Y-7127189D01*
X7604759Y-7113778D01*
X7600746Y-7100824D01*
X7595006Y-7088479D01*
X7587691Y-7076998D01*
X7578902Y-7066584D01*
X7568793Y-7057491D01*
X7557617Y-7049770D01*
X7545476Y-7043674D01*
X7532624Y-7039203D01*
X7519263Y-7036460D01*
X7505700Y-7035546D01*
X7492136Y-7036460D01*
X7478775Y-7039203D01*
X7465923Y-7043674D01*
X7453782Y-7049770D01*
X7442606Y-7057491D01*
X7432497Y-7066584D01*
X7423708Y-7076998D01*
X7416393Y-7088479D01*
X7410653Y-7100824D01*
X7406640Y-7113778D01*
X7404404Y-7127189D01*
X7403947Y-7140803D01*
X7405268Y-7154316D01*
X7408418Y-7167575D01*
X7413345Y-7180275D01*
X7419848Y-7192213D01*
X7427925Y-7203135D01*
X7437374Y-7212939D01*
X7448092Y-7221372D01*
X7459776Y-7228281D01*
X7472273Y-7233615D01*
X7485430Y-7237171D01*
G37*
G36*
X8006892Y-7239000D02*
G01*
X8020507Y-7239000D01*
X8033969Y-7237171D01*
X8047126Y-7233615D01*
X8059623Y-7228281D01*
X8071307Y-7221372D01*
X8082025Y-7212939D01*
X8091474Y-7203135D01*
X8099552Y-7192213D01*
X8106054Y-7180275D01*
X8110981Y-7167575D01*
X8114131Y-7154316D01*
X8115452Y-7140803D01*
X8114995Y-7127189D01*
X8112759Y-7113778D01*
X8108746Y-7100824D01*
X8103006Y-7088479D01*
X8095691Y-7076998D01*
X8086902Y-7066584D01*
X8076793Y-7057491D01*
X8065617Y-7049770D01*
X8053476Y-7043674D01*
X8040624Y-7039203D01*
X8027263Y-7036460D01*
X8013700Y-7035546D01*
X8000136Y-7036460D01*
X7986775Y-7039203D01*
X7973923Y-7043674D01*
X7961782Y-7049770D01*
X7950606Y-7057491D01*
X7940497Y-7066584D01*
X7931708Y-7076998D01*
X7924393Y-7088479D01*
X7918653Y-7100824D01*
X7914640Y-7113778D01*
X7912404Y-7127189D01*
X7911947Y-7140803D01*
X7913268Y-7154316D01*
X7916418Y-7167575D01*
X7921345Y-7180275D01*
X7927848Y-7192213D01*
X7935925Y-7203135D01*
X7945374Y-7212939D01*
X7956092Y-7221372D01*
X7967776Y-7228281D01*
X7980273Y-7233615D01*
X7993430Y-7237171D01*
G37*
G36*
X6534150Y-7228890D02*
G01*
X6535623Y-7228281D01*
X6547307Y-7221372D01*
X6558025Y-7212939D01*
X6567474Y-7203135D01*
X6575552Y-7192213D01*
X6581190Y-7181850D01*
X6534150Y-7181850D01*
G37*
G36*
X6445250Y-7228890D02*
G01*
X6445250Y-7181850D01*
X6398209Y-7181850D01*
X6403848Y-7192213D01*
X6411925Y-7203135D01*
X6421374Y-7212939D01*
X6432092Y-7221372D01*
X6443776Y-7228281D01*
G37*
G36*
X4127500Y-7226553D02*
G01*
X4141063Y-7225639D01*
X4154424Y-7222896D01*
X4167276Y-7218425D01*
X4179417Y-7212330D01*
X4190593Y-7204608D01*
X4200702Y-7195515D01*
X4209491Y-7185101D01*
X4216806Y-7173620D01*
X4222546Y-7161275D01*
X4226560Y-7148322D01*
X4228795Y-7134910D01*
X4229252Y-7121296D01*
X4227931Y-7107783D01*
X4224782Y-7094524D01*
X4219854Y-7081824D01*
X4213352Y-7069886D01*
X4205274Y-7058964D01*
X4195826Y-7049160D01*
X4185107Y-7040727D01*
X4173423Y-7033818D01*
X4160926Y-7028484D01*
X4147769Y-7024928D01*
X4134307Y-7023100D01*
X4120692Y-7023100D01*
X4107230Y-7024928D01*
X4094073Y-7028484D01*
X4081576Y-7033818D01*
X4069892Y-7040727D01*
X4059174Y-7049160D01*
X4049725Y-7058964D01*
X4041648Y-7069886D01*
X4035145Y-7081824D01*
X4030218Y-7094524D01*
X4027068Y-7107783D01*
X4025747Y-7121296D01*
X4026204Y-7134910D01*
X4028440Y-7148322D01*
X4032453Y-7161275D01*
X4038193Y-7173620D01*
X4045508Y-7185101D01*
X4054297Y-7195515D01*
X4064406Y-7204608D01*
X4075582Y-7212330D01*
X4087723Y-7218425D01*
X4100576Y-7222896D01*
X4113936Y-7225639D01*
G37*
G36*
X3873500Y-7226553D02*
G01*
X3887063Y-7225639D01*
X3900424Y-7222896D01*
X3913276Y-7218425D01*
X3925417Y-7212330D01*
X3936593Y-7204608D01*
X3946702Y-7195515D01*
X3955491Y-7185101D01*
X3962806Y-7173620D01*
X3968546Y-7161275D01*
X3972560Y-7148322D01*
X3974795Y-7134910D01*
X3975252Y-7121296D01*
X3973931Y-7107783D01*
X3970782Y-7094524D01*
X3965854Y-7081824D01*
X3959351Y-7069886D01*
X3951274Y-7058964D01*
X3941826Y-7049160D01*
X3931107Y-7040727D01*
X3919423Y-7033818D01*
X3906926Y-7028484D01*
X3893769Y-7024928D01*
X3880307Y-7023100D01*
X3866692Y-7023100D01*
X3853230Y-7024928D01*
X3840073Y-7028484D01*
X3827576Y-7033818D01*
X3815892Y-7040727D01*
X3805174Y-7049160D01*
X3795725Y-7058964D01*
X3787648Y-7069886D01*
X3781145Y-7081824D01*
X3776218Y-7094524D01*
X3773068Y-7107783D01*
X3771747Y-7121296D01*
X3772204Y-7134910D01*
X3774440Y-7148322D01*
X3778453Y-7161275D01*
X3784193Y-7173620D01*
X3791508Y-7185101D01*
X3800297Y-7195515D01*
X3810406Y-7204608D01*
X3821582Y-7212330D01*
X3833723Y-7218425D01*
X3846576Y-7222896D01*
X3859936Y-7225639D01*
G37*
G36*
X3365500Y-7226553D02*
G01*
X3379063Y-7225639D01*
X3392424Y-7222896D01*
X3405276Y-7218425D01*
X3417417Y-7212330D01*
X3428593Y-7204608D01*
X3438702Y-7195515D01*
X3447491Y-7185101D01*
X3454806Y-7173620D01*
X3460546Y-7161275D01*
X3464560Y-7148322D01*
X3466795Y-7134910D01*
X3467252Y-7121296D01*
X3465931Y-7107783D01*
X3462782Y-7094524D01*
X3457854Y-7081824D01*
X3451351Y-7069886D01*
X3443274Y-7058964D01*
X3433826Y-7049160D01*
X3423107Y-7040727D01*
X3411423Y-7033818D01*
X3398926Y-7028484D01*
X3385769Y-7024928D01*
X3372307Y-7023100D01*
X3358692Y-7023100D01*
X3345230Y-7024928D01*
X3332073Y-7028484D01*
X3319576Y-7033818D01*
X3307892Y-7040727D01*
X3297174Y-7049160D01*
X3287725Y-7058964D01*
X3279648Y-7069886D01*
X3273145Y-7081824D01*
X3268217Y-7094524D01*
X3265068Y-7107783D01*
X3263747Y-7121296D01*
X3264204Y-7134910D01*
X3266440Y-7148322D01*
X3270453Y-7161275D01*
X3276193Y-7173620D01*
X3283508Y-7185101D01*
X3292297Y-7195515D01*
X3302406Y-7204608D01*
X3313582Y-7212330D01*
X3325723Y-7218425D01*
X3338576Y-7222896D01*
X3351936Y-7225639D01*
G37*
G36*
X3111500Y-7226553D02*
G01*
X3125063Y-7225639D01*
X3138424Y-7222896D01*
X3151276Y-7218425D01*
X3163417Y-7212330D01*
X3174593Y-7204608D01*
X3184702Y-7195515D01*
X3193491Y-7185101D01*
X3200806Y-7173620D01*
X3206546Y-7161275D01*
X3210560Y-7148322D01*
X3212795Y-7134910D01*
X3213252Y-7121296D01*
X3211931Y-7107783D01*
X3208782Y-7094524D01*
X3203854Y-7081824D01*
X3197352Y-7069886D01*
X3189274Y-7058964D01*
X3179826Y-7049160D01*
X3169107Y-7040727D01*
X3157423Y-7033818D01*
X3144926Y-7028484D01*
X3131769Y-7024928D01*
X3118307Y-7023100D01*
X3104692Y-7023100D01*
X3091230Y-7024928D01*
X3078073Y-7028484D01*
X3065576Y-7033818D01*
X3053892Y-7040727D01*
X3043174Y-7049160D01*
X3033725Y-7058964D01*
X3025648Y-7069886D01*
X3019145Y-7081824D01*
X3014218Y-7094524D01*
X3011068Y-7107783D01*
X3009747Y-7121296D01*
X3010204Y-7134910D01*
X3012440Y-7148322D01*
X3016453Y-7161275D01*
X3022193Y-7173620D01*
X3029508Y-7185101D01*
X3038297Y-7195515D01*
X3048406Y-7204608D01*
X3059582Y-7212330D01*
X3071723Y-7218425D01*
X3084576Y-7222896D01*
X3097936Y-7225639D01*
G37*
G36*
X4381500Y-7226553D02*
G01*
X4395063Y-7225639D01*
X4408424Y-7222896D01*
X4421276Y-7218425D01*
X4433417Y-7212330D01*
X4444593Y-7204608D01*
X4454702Y-7195515D01*
X4463491Y-7185101D01*
X4470806Y-7173620D01*
X4476546Y-7161275D01*
X4480560Y-7148322D01*
X4482795Y-7134910D01*
X4483252Y-7121296D01*
X4481931Y-7107783D01*
X4478782Y-7094524D01*
X4473854Y-7081824D01*
X4467352Y-7069886D01*
X4459274Y-7058964D01*
X4449826Y-7049160D01*
X4439107Y-7040727D01*
X4427423Y-7033818D01*
X4414926Y-7028484D01*
X4401769Y-7024928D01*
X4388307Y-7023100D01*
X4374692Y-7023100D01*
X4361230Y-7024928D01*
X4348073Y-7028484D01*
X4335576Y-7033818D01*
X4323892Y-7040727D01*
X4313174Y-7049160D01*
X4303725Y-7058964D01*
X4295648Y-7069886D01*
X4289145Y-7081824D01*
X4284218Y-7094524D01*
X4281068Y-7107783D01*
X4279747Y-7121296D01*
X4280204Y-7134910D01*
X4282440Y-7148322D01*
X4286453Y-7161275D01*
X4292193Y-7173620D01*
X4299508Y-7185101D01*
X4308297Y-7195515D01*
X4318406Y-7204608D01*
X4329582Y-7212330D01*
X4341723Y-7218425D01*
X4354576Y-7222896D01*
X4367936Y-7225639D01*
G37*
G36*
X2857500Y-7226553D02*
G01*
X2871063Y-7225639D01*
X2884424Y-7222896D01*
X2897276Y-7218425D01*
X2909417Y-7212330D01*
X2920593Y-7204608D01*
X2930702Y-7195515D01*
X2939491Y-7185101D01*
X2946806Y-7173620D01*
X2952546Y-7161275D01*
X2956560Y-7148322D01*
X2958795Y-7134910D01*
X2959252Y-7121296D01*
X2957931Y-7107783D01*
X2954782Y-7094524D01*
X2949854Y-7081824D01*
X2943352Y-7069886D01*
X2935274Y-7058964D01*
X2925826Y-7049160D01*
X2915107Y-7040727D01*
X2903423Y-7033818D01*
X2890926Y-7028484D01*
X2877769Y-7024928D01*
X2864307Y-7023100D01*
X2850692Y-7023100D01*
X2837230Y-7024928D01*
X2824073Y-7028484D01*
X2811576Y-7033818D01*
X2799892Y-7040727D01*
X2789174Y-7049160D01*
X2779725Y-7058964D01*
X2771648Y-7069886D01*
X2765145Y-7081824D01*
X2760218Y-7094524D01*
X2757068Y-7107783D01*
X2755747Y-7121296D01*
X2756204Y-7134910D01*
X2758440Y-7148322D01*
X2762453Y-7161275D01*
X2768193Y-7173620D01*
X2775508Y-7185101D01*
X2784297Y-7195515D01*
X2794406Y-7204608D01*
X2805582Y-7212330D01*
X2817723Y-7218425D01*
X2830576Y-7222896D01*
X2843936Y-7225639D01*
G37*
G36*
X2349500Y-7226553D02*
G01*
X2363063Y-7225639D01*
X2376424Y-7222896D01*
X2389276Y-7218425D01*
X2401417Y-7212330D01*
X2412593Y-7204608D01*
X2422702Y-7195515D01*
X2431491Y-7185101D01*
X2438806Y-7173620D01*
X2444546Y-7161275D01*
X2448560Y-7148322D01*
X2450795Y-7134910D01*
X2451252Y-7121296D01*
X2449931Y-7107783D01*
X2446782Y-7094524D01*
X2441854Y-7081824D01*
X2435352Y-7069886D01*
X2427274Y-7058964D01*
X2417826Y-7049160D01*
X2407107Y-7040727D01*
X2395423Y-7033818D01*
X2382926Y-7028484D01*
X2369769Y-7024928D01*
X2356307Y-7023100D01*
X2342692Y-7023100D01*
X2329230Y-7024928D01*
X2316073Y-7028484D01*
X2303576Y-7033818D01*
X2291892Y-7040727D01*
X2281174Y-7049160D01*
X2271725Y-7058964D01*
X2263648Y-7069886D01*
X2257145Y-7081824D01*
X2252218Y-7094524D01*
X2249068Y-7107783D01*
X2247747Y-7121296D01*
X2248204Y-7134910D01*
X2250440Y-7148322D01*
X2254453Y-7161275D01*
X2260193Y-7173620D01*
X2267508Y-7185101D01*
X2276297Y-7195515D01*
X2286406Y-7204608D01*
X2297582Y-7212330D01*
X2309723Y-7218425D01*
X2322576Y-7222896D01*
X2335936Y-7225639D01*
G37*
G36*
X1841500Y-7226553D02*
G01*
X1855063Y-7225639D01*
X1868424Y-7222896D01*
X1881276Y-7218425D01*
X1893417Y-7212330D01*
X1904593Y-7204608D01*
X1914702Y-7195515D01*
X1923491Y-7185101D01*
X1930806Y-7173620D01*
X1936546Y-7161275D01*
X1940560Y-7148322D01*
X1942795Y-7134910D01*
X1943252Y-7121296D01*
X1941931Y-7107783D01*
X1938782Y-7094524D01*
X1933854Y-7081824D01*
X1927352Y-7069886D01*
X1919274Y-7058964D01*
X1909825Y-7049160D01*
X1899107Y-7040727D01*
X1887423Y-7033818D01*
X1874926Y-7028484D01*
X1861769Y-7024928D01*
X1848307Y-7023100D01*
X1834692Y-7023100D01*
X1821230Y-7024928D01*
X1808073Y-7028484D01*
X1795576Y-7033818D01*
X1783892Y-7040727D01*
X1773174Y-7049160D01*
X1763725Y-7058964D01*
X1755648Y-7069886D01*
X1749145Y-7081824D01*
X1744218Y-7094524D01*
X1741068Y-7107783D01*
X1739747Y-7121296D01*
X1740204Y-7134910D01*
X1742439Y-7148322D01*
X1746453Y-7161275D01*
X1752193Y-7173620D01*
X1759508Y-7185101D01*
X1768297Y-7195515D01*
X1778406Y-7204608D01*
X1789582Y-7212330D01*
X1801723Y-7218425D01*
X1814575Y-7222896D01*
X1827936Y-7225639D01*
G37*
G36*
X1079500Y-7226553D02*
G01*
X1093063Y-7225639D01*
X1106424Y-7222896D01*
X1119276Y-7218425D01*
X1131417Y-7212330D01*
X1142593Y-7204608D01*
X1152702Y-7195515D01*
X1161491Y-7185101D01*
X1168806Y-7173620D01*
X1174546Y-7161275D01*
X1178560Y-7148322D01*
X1180795Y-7134910D01*
X1181252Y-7121296D01*
X1179931Y-7107783D01*
X1176782Y-7094524D01*
X1171854Y-7081824D01*
X1165352Y-7069886D01*
X1157274Y-7058964D01*
X1147826Y-7049160D01*
X1137107Y-7040727D01*
X1125423Y-7033818D01*
X1112926Y-7028484D01*
X1099769Y-7024928D01*
X1086307Y-7023100D01*
X1072692Y-7023100D01*
X1059230Y-7024928D01*
X1046073Y-7028484D01*
X1033576Y-7033818D01*
X1021892Y-7040727D01*
X1011174Y-7049160D01*
X1001725Y-7058964D01*
X993648Y-7069886D01*
X987145Y-7081824D01*
X982218Y-7094524D01*
X979068Y-7107783D01*
X977747Y-7121296D01*
X978204Y-7134910D01*
X980440Y-7148322D01*
X984453Y-7161275D01*
X990193Y-7173620D01*
X997508Y-7185101D01*
X1006297Y-7195515D01*
X1016406Y-7204608D01*
X1027582Y-7212330D01*
X1039723Y-7218425D01*
X1052576Y-7222896D01*
X1065936Y-7225639D01*
G37*
G36*
X4635500Y-7226553D02*
G01*
X4649063Y-7225639D01*
X4662424Y-7222896D01*
X4675276Y-7218425D01*
X4687417Y-7212330D01*
X4698593Y-7204608D01*
X4708702Y-7195515D01*
X4717491Y-7185101D01*
X4724806Y-7173620D01*
X4730546Y-7161275D01*
X4734560Y-7148322D01*
X4736795Y-7134910D01*
X4737252Y-7121296D01*
X4735931Y-7107783D01*
X4732782Y-7094524D01*
X4727854Y-7081824D01*
X4721352Y-7069886D01*
X4713274Y-7058964D01*
X4703826Y-7049160D01*
X4693107Y-7040727D01*
X4676800Y-7031024D01*
X4674616Y-7027722D01*
X4673854Y-7023862D01*
X4673854Y-6598716D01*
X4674616Y-6594805D01*
X4676851Y-6591503D01*
X5385003Y-5883351D01*
X5388305Y-5881116D01*
X5392216Y-5880354D01*
X5467553Y-5880354D01*
X5471871Y-5881319D01*
X5475376Y-5884062D01*
X5477408Y-5887974D01*
X5478018Y-5890412D01*
X5483352Y-5903925D01*
X5490362Y-5916676D01*
X5498896Y-5928410D01*
X5508853Y-5938977D01*
X5520029Y-5948273D01*
X5532272Y-5956046D01*
X5545429Y-5962192D01*
X5559247Y-5966714D01*
X5573522Y-5969406D01*
X5588000Y-5970320D01*
X5602478Y-5969406D01*
X5616752Y-5966714D01*
X5630570Y-5962192D01*
X5643727Y-5956046D01*
X5655970Y-5948273D01*
X5667146Y-5938977D01*
X5677103Y-5928410D01*
X5685637Y-5916676D01*
X5692648Y-5903925D01*
X5697982Y-5890412D01*
X5701588Y-5876391D01*
X5703417Y-5861964D01*
X5703417Y-5847435D01*
X5701588Y-5833008D01*
X5697982Y-5818987D01*
X5692648Y-5805474D01*
X5685637Y-5792724D01*
X5677103Y-5780989D01*
X5667146Y-5770422D01*
X5655970Y-5761126D01*
X5643727Y-5753354D01*
X5630570Y-5747207D01*
X5616752Y-5742686D01*
X5602478Y-5739993D01*
X5588000Y-5739079D01*
X5573522Y-5739993D01*
X5559247Y-5742686D01*
X5545429Y-5747207D01*
X5532272Y-5753354D01*
X5520029Y-5761126D01*
X5508853Y-5770422D01*
X5498896Y-5780989D01*
X5490362Y-5792724D01*
X5487263Y-5798362D01*
X5484977Y-5801156D01*
X5481929Y-5802985D01*
X5478373Y-5803646D01*
X5372608Y-5803646D01*
X5364632Y-5804408D01*
X5357418Y-5806592D01*
X5350814Y-5810148D01*
X5344617Y-5815228D01*
X4608728Y-6551117D01*
X4603648Y-6557314D01*
X4600092Y-6563918D01*
X4597908Y-6571132D01*
X4597146Y-6579108D01*
X4597146Y-7023862D01*
X4596384Y-7027722D01*
X4594199Y-7031024D01*
X4577892Y-7040727D01*
X4567174Y-7049160D01*
X4557725Y-7058964D01*
X4549648Y-7069886D01*
X4543145Y-7081824D01*
X4538218Y-7094524D01*
X4535068Y-7107783D01*
X4533747Y-7121296D01*
X4534204Y-7134910D01*
X4536440Y-7148322D01*
X4540453Y-7161275D01*
X4546193Y-7173620D01*
X4553508Y-7185101D01*
X4562297Y-7195515D01*
X4572406Y-7204608D01*
X4583582Y-7212330D01*
X4595723Y-7218425D01*
X4608576Y-7222896D01*
X4621936Y-7225639D01*
G37*
G36*
X3619500Y-7226553D02*
G01*
X3633063Y-7225639D01*
X3646424Y-7222896D01*
X3659276Y-7218425D01*
X3671417Y-7212330D01*
X3682593Y-7204608D01*
X3692702Y-7195515D01*
X3701491Y-7185101D01*
X3708806Y-7173620D01*
X3714546Y-7161275D01*
X3718560Y-7148322D01*
X3720795Y-7134910D01*
X3721252Y-7121296D01*
X3719931Y-7107783D01*
X3716782Y-7094524D01*
X3711854Y-7081824D01*
X3705351Y-7069886D01*
X3697274Y-7058964D01*
X3687826Y-7049160D01*
X3677107Y-7040727D01*
X3660800Y-7031024D01*
X3658615Y-7027722D01*
X3657854Y-7023862D01*
X3657854Y-6420916D01*
X3658615Y-6417005D01*
X3660851Y-6413703D01*
X4686503Y-5388051D01*
X4689805Y-5385816D01*
X4693716Y-5385054D01*
X5462168Y-5385054D01*
X5466080Y-5385816D01*
X5469382Y-5388051D01*
X5471566Y-5391302D01*
X5472328Y-5395214D01*
X5472328Y-5436108D01*
X5473039Y-5442407D01*
X5474970Y-5447792D01*
X5478018Y-5452668D01*
X5482031Y-5456682D01*
X5486908Y-5459780D01*
X5492292Y-5461660D01*
X5498592Y-5462371D01*
X5677408Y-5462371D01*
X5683707Y-5461660D01*
X5689092Y-5459780D01*
X5693968Y-5456682D01*
X5697982Y-5452668D01*
X5701080Y-5447792D01*
X5702960Y-5442407D01*
X5703671Y-5436108D01*
X5703671Y-5257292D01*
X5702960Y-5250992D01*
X5701080Y-5245608D01*
X5697982Y-5240731D01*
X5693968Y-5236718D01*
X5689092Y-5233670D01*
X5683707Y-5231739D01*
X5677408Y-5231028D01*
X5498592Y-5231028D01*
X5492292Y-5231739D01*
X5486908Y-5233670D01*
X5482031Y-5236718D01*
X5478018Y-5240731D01*
X5474970Y-5245608D01*
X5473039Y-5250992D01*
X5472328Y-5257292D01*
X5472328Y-5298186D01*
X5471566Y-5302097D01*
X5469382Y-5305348D01*
X5466080Y-5307584D01*
X5462168Y-5308346D01*
X4674108Y-5308346D01*
X4666132Y-5309108D01*
X4658918Y-5311292D01*
X4652314Y-5314848D01*
X4646117Y-5319928D01*
X3592728Y-6373317D01*
X3587648Y-6379514D01*
X3584092Y-6386118D01*
X3581908Y-6393332D01*
X3581146Y-6401308D01*
X3581146Y-7023862D01*
X3580384Y-7027722D01*
X3578199Y-7031024D01*
X3561892Y-7040727D01*
X3551174Y-7049160D01*
X3541725Y-7058964D01*
X3533648Y-7069886D01*
X3527145Y-7081824D01*
X3522218Y-7094524D01*
X3519068Y-7107783D01*
X3517747Y-7121296D01*
X3518204Y-7134910D01*
X3520440Y-7148322D01*
X3524453Y-7161275D01*
X3530193Y-7173620D01*
X3537508Y-7185101D01*
X3546297Y-7195515D01*
X3556406Y-7204608D01*
X3567582Y-7212330D01*
X3579723Y-7218425D01*
X3592576Y-7222896D01*
X3605936Y-7225639D01*
G37*
G36*
X2603500Y-7226553D02*
G01*
X2617063Y-7225639D01*
X2630424Y-7222896D01*
X2643276Y-7218425D01*
X2655417Y-7212330D01*
X2666593Y-7204608D01*
X2676702Y-7195515D01*
X2685491Y-7185101D01*
X2692806Y-7173620D01*
X2698546Y-7161275D01*
X2702560Y-7148322D01*
X2704795Y-7134910D01*
X2705252Y-7121296D01*
X2703931Y-7107783D01*
X2700782Y-7094524D01*
X2699562Y-7091425D01*
X2698902Y-7087616D01*
X2699664Y-7083806D01*
X2701848Y-7080605D01*
X5170271Y-4612182D01*
X5175351Y-4605985D01*
X5178907Y-4599381D01*
X5181092Y-4592167D01*
X5181854Y-4584192D01*
X5181854Y-3868216D01*
X5182616Y-3864305D01*
X5184851Y-3861003D01*
X5467654Y-3578199D01*
X5470753Y-3576065D01*
X5474360Y-3575253D01*
X5478068Y-3575761D01*
X5481370Y-3577590D01*
X5483707Y-3580485D01*
X5490362Y-3592576D01*
X5498896Y-3604310D01*
X5508853Y-3614877D01*
X5520029Y-3624173D01*
X5532272Y-3631946D01*
X5545429Y-3638092D01*
X5559247Y-3642614D01*
X5573522Y-3645306D01*
X5588000Y-3646220D01*
X5602478Y-3645306D01*
X5616752Y-3642614D01*
X5630570Y-3638092D01*
X5643727Y-3631946D01*
X5655970Y-3624173D01*
X5667146Y-3614877D01*
X5677103Y-3604310D01*
X5685637Y-3592576D01*
X5692648Y-3579825D01*
X5697982Y-3566312D01*
X5701588Y-3552291D01*
X5703417Y-3537864D01*
X5703417Y-3523335D01*
X5701588Y-3508908D01*
X5697982Y-3494887D01*
X5692648Y-3481374D01*
X5685637Y-3468624D01*
X5677103Y-3456889D01*
X5667146Y-3446322D01*
X5655970Y-3437026D01*
X5643727Y-3429254D01*
X5630570Y-3423107D01*
X5616752Y-3418586D01*
X5602478Y-3415893D01*
X5588000Y-3414979D01*
X5573522Y-3415893D01*
X5559247Y-3418586D01*
X5545429Y-3423107D01*
X5532272Y-3429254D01*
X5520029Y-3437026D01*
X5508853Y-3446322D01*
X5498896Y-3456889D01*
X5490362Y-3468624D01*
X5483352Y-3481374D01*
X5481624Y-3485845D01*
X5479440Y-3489198D01*
X5476087Y-3491433D01*
X5472176Y-3492246D01*
X5461508Y-3492246D01*
X5453532Y-3493008D01*
X5446318Y-3495192D01*
X5439714Y-3498748D01*
X5433517Y-3503828D01*
X5116728Y-3820617D01*
X5111648Y-3826814D01*
X5108092Y-3833418D01*
X5105908Y-3840632D01*
X5105146Y-3848608D01*
X5105146Y-4564583D01*
X5104384Y-4568494D01*
X5102148Y-4571796D01*
X2647746Y-7026198D01*
X2644851Y-7028230D01*
X2641396Y-7029145D01*
X2637840Y-7028789D01*
X2623769Y-7024928D01*
X2610307Y-7023100D01*
X2596692Y-7023100D01*
X2583230Y-7024928D01*
X2570073Y-7028484D01*
X2557576Y-7033818D01*
X2545892Y-7040727D01*
X2535174Y-7049160D01*
X2525725Y-7058964D01*
X2517648Y-7069886D01*
X2511145Y-7081824D01*
X2506218Y-7094524D01*
X2503068Y-7107783D01*
X2501747Y-7121296D01*
X2502204Y-7134910D01*
X2504440Y-7148322D01*
X2508453Y-7161275D01*
X2514193Y-7173620D01*
X2521508Y-7185101D01*
X2530297Y-7195515D01*
X2540406Y-7204608D01*
X2551582Y-7212330D01*
X2563723Y-7218425D01*
X2576576Y-7222896D01*
X2589936Y-7225639D01*
G37*
G36*
X1377950Y-7216089D02*
G01*
X1385417Y-7212330D01*
X1396593Y-7204608D01*
X1406702Y-7195515D01*
X1415491Y-7185101D01*
X1422806Y-7173620D01*
X1424889Y-7169150D01*
X1377950Y-7169150D01*
G37*
G36*
X1289050Y-7216089D02*
G01*
X1289050Y-7169150D01*
X1242110Y-7169150D01*
X1244193Y-7173620D01*
X1251508Y-7185101D01*
X1260297Y-7195515D01*
X1270406Y-7204608D01*
X1281582Y-7212330D01*
G37*
G36*
X6534150Y-7092950D02*
G01*
X6581089Y-7092950D01*
X6579006Y-7088479D01*
X6571691Y-7076998D01*
X6562902Y-7066584D01*
X6552793Y-7057491D01*
X6541617Y-7049770D01*
X6534150Y-7046010D01*
G37*
G36*
X6398310Y-7092950D02*
G01*
X6445250Y-7092950D01*
X6445250Y-7046010D01*
X6437782Y-7049770D01*
X6426606Y-7057491D01*
X6416497Y-7066584D01*
X6407708Y-7076998D01*
X6400393Y-7088479D01*
G37*
G36*
X6280150Y-7092950D02*
G01*
X6337554Y-7092950D01*
X6337554Y-7061758D01*
X6336842Y-7055510D01*
X6334963Y-7050074D01*
X6331915Y-7045248D01*
X6327851Y-7041184D01*
X6323025Y-7038136D01*
X6317589Y-7036257D01*
X6311341Y-7035546D01*
X6280150Y-7035546D01*
G37*
G36*
X6133846Y-7092950D02*
G01*
X6191250Y-7092950D01*
X6191250Y-7035546D01*
X6160058Y-7035546D01*
X6153810Y-7036257D01*
X6148374Y-7038136D01*
X6143548Y-7041184D01*
X6139484Y-7045248D01*
X6136436Y-7050074D01*
X6134557Y-7055510D01*
X6133846Y-7061758D01*
G37*
G36*
X1242009Y-7080250D02*
G01*
X1289050Y-7080250D01*
X1289050Y-7033209D01*
X1287576Y-7033818D01*
X1275892Y-7040727D01*
X1265174Y-7049160D01*
X1255725Y-7058964D01*
X1247648Y-7069886D01*
G37*
G36*
X1377950Y-7080250D02*
G01*
X1424990Y-7080250D01*
X1419352Y-7069886D01*
X1411274Y-7058964D01*
X1401826Y-7049160D01*
X1391107Y-7040727D01*
X1379423Y-7033818D01*
X1377950Y-7033209D01*
G37*
G36*
X5588000Y-6986320D02*
G01*
X5602478Y-6985406D01*
X5616752Y-6982714D01*
X5630570Y-6978192D01*
X5643727Y-6972046D01*
X5655970Y-6964273D01*
X5667146Y-6954977D01*
X5677103Y-6944410D01*
X5685637Y-6932675D01*
X5692648Y-6919925D01*
X5697982Y-6906412D01*
X5701588Y-6892391D01*
X5703417Y-6877964D01*
X5703417Y-6863435D01*
X5701588Y-6849008D01*
X5697982Y-6834987D01*
X5692648Y-6821474D01*
X5685637Y-6808724D01*
X5677103Y-6796989D01*
X5667146Y-6786422D01*
X5655970Y-6777126D01*
X5643727Y-6769353D01*
X5630570Y-6763207D01*
X5616752Y-6758686D01*
X5602478Y-6755993D01*
X5588000Y-6755079D01*
X5573522Y-6755993D01*
X5559247Y-6758686D01*
X5545429Y-6763207D01*
X5532272Y-6769353D01*
X5520029Y-6777126D01*
X5508853Y-6786422D01*
X5498896Y-6796989D01*
X5490362Y-6808724D01*
X5483352Y-6821474D01*
X5478018Y-6834987D01*
X5474411Y-6849008D01*
X5472582Y-6863435D01*
X5472582Y-6877964D01*
X5474411Y-6892391D01*
X5478018Y-6906412D01*
X5483352Y-6919925D01*
X5490362Y-6932675D01*
X5498896Y-6944410D01*
X5508853Y-6954977D01*
X5520029Y-6964273D01*
X5532272Y-6972046D01*
X5545429Y-6978192D01*
X5559247Y-6982714D01*
X5573522Y-6985406D01*
G37*
G36*
X5536641Y-6720078D02*
G01*
X5536641Y-6668058D01*
X5484520Y-6668058D01*
X5490362Y-6678675D01*
X5498896Y-6690410D01*
X5508853Y-6700977D01*
X5520029Y-6710273D01*
X5532272Y-6718046D01*
G37*
G36*
X5639358Y-6720078D02*
G01*
X5643727Y-6718046D01*
X5655970Y-6710273D01*
X5667146Y-6700977D01*
X5677103Y-6690410D01*
X5685637Y-6678675D01*
X5691479Y-6668058D01*
X5639358Y-6668058D01*
G37*
G36*
X5639358Y-6565341D02*
G01*
X5691479Y-6565341D01*
X5685637Y-6554724D01*
X5677103Y-6542989D01*
X5667146Y-6532422D01*
X5655970Y-6523126D01*
X5643727Y-6515354D01*
X5639358Y-6513322D01*
G37*
G36*
X5484520Y-6565341D02*
G01*
X5536641Y-6565341D01*
X5536641Y-6513322D01*
X5532272Y-6515354D01*
X5520029Y-6523126D01*
X5508853Y-6532422D01*
X5498896Y-6542989D01*
X5490362Y-6554724D01*
G37*
G36*
X5588000Y-6478320D02*
G01*
X5602478Y-6477406D01*
X5616752Y-6474714D01*
X5630570Y-6470192D01*
X5643727Y-6464046D01*
X5655970Y-6456273D01*
X5667146Y-6446977D01*
X5677103Y-6436410D01*
X5685637Y-6424676D01*
X5692648Y-6411925D01*
X5697982Y-6398412D01*
X5701588Y-6384391D01*
X5703417Y-6369964D01*
X5703417Y-6355435D01*
X5701588Y-6341008D01*
X5697982Y-6326987D01*
X5692648Y-6313474D01*
X5685637Y-6300724D01*
X5677103Y-6288989D01*
X5667146Y-6278422D01*
X5655970Y-6269126D01*
X5643727Y-6261354D01*
X5630570Y-6255207D01*
X5616752Y-6250686D01*
X5602478Y-6247993D01*
X5588000Y-6247079D01*
X5573522Y-6247993D01*
X5559247Y-6250686D01*
X5545429Y-6255207D01*
X5532272Y-6261354D01*
X5520029Y-6269126D01*
X5508853Y-6278422D01*
X5498896Y-6288989D01*
X5490362Y-6300724D01*
X5483352Y-6313474D01*
X5478018Y-6326987D01*
X5474411Y-6341008D01*
X5472582Y-6355435D01*
X5472582Y-6369964D01*
X5474411Y-6384391D01*
X5478018Y-6398412D01*
X5483352Y-6411925D01*
X5490362Y-6424676D01*
X5498896Y-6436410D01*
X5508853Y-6446977D01*
X5520029Y-6456273D01*
X5532272Y-6464046D01*
X5545429Y-6470192D01*
X5559247Y-6474714D01*
X5573522Y-6477406D01*
G37*
G36*
X5588000Y-6224320D02*
G01*
X5602478Y-6223406D01*
X5616752Y-6220714D01*
X5630570Y-6216192D01*
X5643727Y-6210046D01*
X5655970Y-6202273D01*
X5667146Y-6192977D01*
X5677103Y-6182410D01*
X5685637Y-6170676D01*
X5692648Y-6157925D01*
X5697982Y-6144412D01*
X5701588Y-6130391D01*
X5703417Y-6115964D01*
X5703417Y-6101435D01*
X5701588Y-6087008D01*
X5697982Y-6072987D01*
X5692648Y-6059474D01*
X5685637Y-6046724D01*
X5677103Y-6034989D01*
X5667146Y-6024422D01*
X5655970Y-6015126D01*
X5643727Y-6007354D01*
X5630570Y-6001207D01*
X5616752Y-5996686D01*
X5602478Y-5993993D01*
X5588000Y-5993079D01*
X5573522Y-5993993D01*
X5559247Y-5996686D01*
X5545429Y-6001207D01*
X5532272Y-6007354D01*
X5520029Y-6015126D01*
X5508853Y-6024422D01*
X5498896Y-6034989D01*
X5490362Y-6046724D01*
X5483352Y-6059474D01*
X5478018Y-6072987D01*
X5474411Y-6087008D01*
X5472582Y-6101435D01*
X5472582Y-6115964D01*
X5474411Y-6130391D01*
X5478018Y-6144412D01*
X5483352Y-6157925D01*
X5490362Y-6170676D01*
X5498896Y-6182410D01*
X5508853Y-6192977D01*
X5520029Y-6202273D01*
X5532272Y-6210046D01*
X5545429Y-6216192D01*
X5559247Y-6220714D01*
X5573522Y-6223406D01*
G37*
G36*
X5588000Y-5716320D02*
G01*
X5602478Y-5715406D01*
X5616752Y-5712714D01*
X5630570Y-5708192D01*
X5643727Y-5702046D01*
X5655970Y-5694273D01*
X5667146Y-5684977D01*
X5677103Y-5674410D01*
X5685637Y-5662676D01*
X5692648Y-5649925D01*
X5694375Y-5645454D01*
X5696559Y-5642102D01*
X5699912Y-5639866D01*
X5703824Y-5639054D01*
X6730492Y-5639054D01*
X6738467Y-5638292D01*
X6745681Y-5636107D01*
X6752285Y-5632551D01*
X6758482Y-5627471D01*
X7278471Y-5107482D01*
X7283551Y-5101285D01*
X7287107Y-5094681D01*
X7289292Y-5087467D01*
X7290053Y-5079492D01*
X7290053Y-4698238D01*
X7290816Y-4694377D01*
X7293000Y-4691075D01*
X7309307Y-4681372D01*
X7320025Y-4672939D01*
X7329474Y-4663135D01*
X7337552Y-4652213D01*
X7344054Y-4640275D01*
X7348981Y-4627575D01*
X7352131Y-4614316D01*
X7353452Y-4600803D01*
X7352995Y-4587189D01*
X7350759Y-4573778D01*
X7346746Y-4560824D01*
X7341006Y-4548479D01*
X7333691Y-4536998D01*
X7324902Y-4526584D01*
X7314793Y-4517491D01*
X7303617Y-4509770D01*
X7291476Y-4503674D01*
X7278624Y-4499203D01*
X7265263Y-4496460D01*
X7251700Y-4495546D01*
X7238136Y-4496460D01*
X7224775Y-4499203D01*
X7211923Y-4503674D01*
X7199782Y-4509770D01*
X7188606Y-4517491D01*
X7178497Y-4526584D01*
X7169708Y-4536998D01*
X7162393Y-4548479D01*
X7156653Y-4560824D01*
X7152640Y-4573778D01*
X7150404Y-4587189D01*
X7149947Y-4600803D01*
X7151268Y-4614316D01*
X7154418Y-4627575D01*
X7159345Y-4640275D01*
X7165848Y-4652213D01*
X7173925Y-4663135D01*
X7183374Y-4672939D01*
X7194092Y-4681372D01*
X7210399Y-4691075D01*
X7212584Y-4694377D01*
X7213346Y-4698238D01*
X7213346Y-5059883D01*
X7212584Y-5063794D01*
X7210348Y-5067096D01*
X6718096Y-5559348D01*
X6714794Y-5561584D01*
X6710883Y-5562346D01*
X5703824Y-5562346D01*
X5699912Y-5561533D01*
X5696559Y-5559298D01*
X5694375Y-5555945D01*
X5692648Y-5551474D01*
X5685637Y-5538724D01*
X5677103Y-5526989D01*
X5667146Y-5516422D01*
X5655970Y-5507126D01*
X5643727Y-5499354D01*
X5630570Y-5493207D01*
X5616752Y-5488686D01*
X5602478Y-5485993D01*
X5588000Y-5485079D01*
X5573522Y-5485993D01*
X5559247Y-5488686D01*
X5545429Y-5493207D01*
X5532272Y-5499354D01*
X5520029Y-5507126D01*
X5508853Y-5516422D01*
X5498896Y-5526989D01*
X5490362Y-5538724D01*
X5483352Y-5551474D01*
X5478018Y-5564987D01*
X5474411Y-5579008D01*
X5472582Y-5593435D01*
X5472582Y-5607964D01*
X5474411Y-5622391D01*
X5478018Y-5636412D01*
X5483352Y-5649925D01*
X5490362Y-5662676D01*
X5498896Y-5674410D01*
X5508853Y-5684977D01*
X5520029Y-5694273D01*
X5532272Y-5702046D01*
X5545429Y-5708192D01*
X5559247Y-5712714D01*
X5573522Y-5715406D01*
G37*
G36*
X5498592Y-4841494D02*
G01*
X5677408Y-4841494D01*
X5683707Y-4840782D01*
X5689092Y-4838903D01*
X5693968Y-4835855D01*
X5697982Y-4831791D01*
X5701080Y-4826965D01*
X5702960Y-4821529D01*
X5703671Y-4815281D01*
X5703671Y-4658918D01*
X5702960Y-4652670D01*
X5701080Y-4647234D01*
X5697982Y-4642408D01*
X5693968Y-4638344D01*
X5689092Y-4635296D01*
X5683707Y-4633417D01*
X5677408Y-4632706D01*
X5498592Y-4632706D01*
X5492292Y-4633417D01*
X5486908Y-4635296D01*
X5482031Y-4638344D01*
X5478018Y-4642408D01*
X5474970Y-4647234D01*
X5473039Y-4652670D01*
X5472328Y-4658918D01*
X5472328Y-4815281D01*
X5473039Y-4821529D01*
X5474970Y-4826965D01*
X5478018Y-4831791D01*
X5482031Y-4835855D01*
X5486908Y-4838903D01*
X5492292Y-4840782D01*
G37*
G36*
X6736892Y-4699000D02*
G01*
X6750507Y-4699000D01*
X6763969Y-4697171D01*
X6777126Y-4693615D01*
X6789623Y-4688281D01*
X6801307Y-4681372D01*
X6812025Y-4672939D01*
X6821474Y-4663135D01*
X6829552Y-4652213D01*
X6836054Y-4640275D01*
X6840981Y-4627575D01*
X6844131Y-4614316D01*
X6845452Y-4600803D01*
X6844995Y-4587189D01*
X6842759Y-4573778D01*
X6838746Y-4560824D01*
X6833006Y-4548479D01*
X6825691Y-4536998D01*
X6816902Y-4526584D01*
X6806793Y-4517491D01*
X6795617Y-4509770D01*
X6783476Y-4503674D01*
X6770624Y-4499203D01*
X6757263Y-4496460D01*
X6743700Y-4495546D01*
X6730136Y-4496460D01*
X6716775Y-4499203D01*
X6703923Y-4503674D01*
X6691782Y-4509770D01*
X6680606Y-4517491D01*
X6670497Y-4526584D01*
X6661708Y-4536998D01*
X6654393Y-4548479D01*
X6648653Y-4560824D01*
X6644640Y-4573778D01*
X6642404Y-4587189D01*
X6641947Y-4600803D01*
X6643268Y-4614316D01*
X6646418Y-4627575D01*
X6651345Y-4640275D01*
X6657848Y-4652213D01*
X6665925Y-4663135D01*
X6675374Y-4672939D01*
X6686092Y-4681372D01*
X6697776Y-4688281D01*
X6710273Y-4693615D01*
X6723430Y-4697171D01*
G37*
G36*
X6482892Y-4699000D02*
G01*
X6496507Y-4699000D01*
X6509969Y-4697171D01*
X6523126Y-4693615D01*
X6535623Y-4688281D01*
X6547307Y-4681372D01*
X6558025Y-4672939D01*
X6567474Y-4663135D01*
X6575552Y-4652213D01*
X6582054Y-4640275D01*
X6586981Y-4627575D01*
X6590131Y-4614316D01*
X6591452Y-4600803D01*
X6590995Y-4587189D01*
X6588759Y-4573778D01*
X6584746Y-4560824D01*
X6579006Y-4548479D01*
X6571691Y-4536998D01*
X6562902Y-4526584D01*
X6552793Y-4517491D01*
X6541617Y-4509770D01*
X6529476Y-4503674D01*
X6516624Y-4499203D01*
X6503263Y-4496460D01*
X6489700Y-4495546D01*
X6476136Y-4496460D01*
X6462776Y-4499203D01*
X6449923Y-4503674D01*
X6437782Y-4509770D01*
X6426606Y-4517491D01*
X6416497Y-4526584D01*
X6407708Y-4536998D01*
X6400393Y-4548479D01*
X6394653Y-4560824D01*
X6390640Y-4573778D01*
X6388404Y-4587189D01*
X6387947Y-4600803D01*
X6389268Y-4614316D01*
X6392418Y-4627575D01*
X6397345Y-4640275D01*
X6403848Y-4652213D01*
X6411925Y-4663135D01*
X6421374Y-4672939D01*
X6432092Y-4681372D01*
X6443776Y-4688281D01*
X6456273Y-4693615D01*
X6469430Y-4697171D01*
G37*
G36*
X6990892Y-4699000D02*
G01*
X7004507Y-4699000D01*
X7017969Y-4697171D01*
X7031126Y-4693615D01*
X7043623Y-4688281D01*
X7055307Y-4681372D01*
X7066025Y-4672939D01*
X7075474Y-4663135D01*
X7083552Y-4652213D01*
X7090054Y-4640275D01*
X7094981Y-4627575D01*
X7098131Y-4614316D01*
X7099452Y-4600803D01*
X7098995Y-4587189D01*
X7096759Y-4573778D01*
X7092746Y-4560824D01*
X7087006Y-4548479D01*
X7079691Y-4536998D01*
X7070902Y-4526584D01*
X7060793Y-4517491D01*
X7049617Y-4509770D01*
X7037476Y-4503674D01*
X7024624Y-4499203D01*
X7011263Y-4496460D01*
X6997700Y-4495546D01*
X6984136Y-4496460D01*
X6970775Y-4499203D01*
X6957923Y-4503674D01*
X6945782Y-4509770D01*
X6934606Y-4517491D01*
X6924497Y-4526584D01*
X6915708Y-4536998D01*
X6908393Y-4548479D01*
X6902653Y-4560824D01*
X6898640Y-4573778D01*
X6896404Y-4587189D01*
X6895947Y-4600803D01*
X6897268Y-4614316D01*
X6900418Y-4627575D01*
X6905345Y-4640275D01*
X6911848Y-4652213D01*
X6919925Y-4663135D01*
X6929374Y-4672939D01*
X6940092Y-4681372D01*
X6951776Y-4688281D01*
X6964273Y-4693615D01*
X6977430Y-4697171D01*
G37*
G36*
X7498892Y-4699000D02*
G01*
X7512507Y-4699000D01*
X7525969Y-4697171D01*
X7539126Y-4693615D01*
X7551623Y-4688281D01*
X7563307Y-4681372D01*
X7574025Y-4672939D01*
X7583474Y-4663135D01*
X7591552Y-4652213D01*
X7598054Y-4640275D01*
X7602981Y-4627575D01*
X7606131Y-4614316D01*
X7607452Y-4600803D01*
X7606995Y-4587189D01*
X7604759Y-4573778D01*
X7600746Y-4560824D01*
X7595006Y-4548479D01*
X7587691Y-4536998D01*
X7578902Y-4526584D01*
X7568793Y-4517491D01*
X7557617Y-4509770D01*
X7545476Y-4503674D01*
X7532624Y-4499203D01*
X7519263Y-4496460D01*
X7505700Y-4495546D01*
X7492136Y-4496460D01*
X7478775Y-4499203D01*
X7465923Y-4503674D01*
X7453782Y-4509770D01*
X7442606Y-4517491D01*
X7432497Y-4526584D01*
X7423708Y-4536998D01*
X7416393Y-4548479D01*
X7410653Y-4560824D01*
X7406640Y-4573778D01*
X7404404Y-4587189D01*
X7403947Y-4600803D01*
X7405268Y-4614316D01*
X7408418Y-4627575D01*
X7413345Y-4640275D01*
X7419848Y-4652213D01*
X7427925Y-4663135D01*
X7437374Y-4672939D01*
X7448092Y-4681372D01*
X7459776Y-4688281D01*
X7472273Y-4693615D01*
X7485430Y-4697171D01*
G37*
G36*
X7752892Y-4699000D02*
G01*
X7766507Y-4699000D01*
X7779969Y-4697171D01*
X7793126Y-4693615D01*
X7805623Y-4688281D01*
X7817307Y-4681372D01*
X7828025Y-4672939D01*
X7837474Y-4663135D01*
X7845552Y-4652213D01*
X7852054Y-4640275D01*
X7856981Y-4627575D01*
X7860131Y-4614316D01*
X7861452Y-4600803D01*
X7860995Y-4587189D01*
X7858759Y-4573778D01*
X7854746Y-4560824D01*
X7849006Y-4548479D01*
X7841691Y-4536998D01*
X7832902Y-4526584D01*
X7822793Y-4517491D01*
X7811617Y-4509770D01*
X7799476Y-4503674D01*
X7786624Y-4499203D01*
X7773263Y-4496460D01*
X7759700Y-4495546D01*
X7746136Y-4496460D01*
X7732775Y-4499203D01*
X7719923Y-4503674D01*
X7707782Y-4509770D01*
X7696606Y-4517491D01*
X7686497Y-4526584D01*
X7677708Y-4536998D01*
X7670393Y-4548479D01*
X7664653Y-4560824D01*
X7660640Y-4573778D01*
X7658404Y-4587189D01*
X7657947Y-4600803D01*
X7659268Y-4614316D01*
X7662418Y-4627575D01*
X7667345Y-4640275D01*
X7673848Y-4652213D01*
X7681925Y-4663135D01*
X7691374Y-4672939D01*
X7702092Y-4681372D01*
X7713776Y-4688281D01*
X7726273Y-4693615D01*
X7739430Y-4697171D01*
G37*
G36*
X6191250Y-4688890D02*
G01*
X6191250Y-4641850D01*
X6144209Y-4641850D01*
X6149848Y-4652213D01*
X6157925Y-4663135D01*
X6167374Y-4672939D01*
X6178092Y-4681372D01*
X6189776Y-4688281D01*
G37*
G36*
X6280150Y-4688890D02*
G01*
X6281623Y-4688281D01*
X6293307Y-4681372D01*
X6304026Y-4672939D01*
X6313474Y-4663135D01*
X6321552Y-4652213D01*
X6327190Y-4641850D01*
X6280150Y-4641850D01*
G37*
G36*
X7969250Y-4688890D02*
G01*
X7969250Y-4641850D01*
X7922209Y-4641850D01*
X7927848Y-4652213D01*
X7935925Y-4663135D01*
X7945374Y-4672939D01*
X7956092Y-4681372D01*
X7967776Y-4688281D01*
G37*
G36*
X8058150Y-4688890D02*
G01*
X8059623Y-4688281D01*
X8071307Y-4681372D01*
X8082025Y-4672939D01*
X8091474Y-4663135D01*
X8099552Y-4652213D01*
X8105190Y-4641850D01*
X8058150Y-4641850D01*
G37*
G36*
X3619500Y-4686554D02*
G01*
X3633063Y-4685639D01*
X3646424Y-4682896D01*
X3659276Y-4678426D01*
X3671417Y-4672330D01*
X3682593Y-4664608D01*
X3692702Y-4655515D01*
X3701491Y-4645101D01*
X3708806Y-4633620D01*
X3714546Y-4621276D01*
X3718560Y-4608322D01*
X3720795Y-4594910D01*
X3721252Y-4581296D01*
X3719931Y-4567783D01*
X3716782Y-4554524D01*
X3711854Y-4541824D01*
X3705351Y-4529886D01*
X3697274Y-4518964D01*
X3687826Y-4509160D01*
X3677107Y-4500727D01*
X3665423Y-4493818D01*
X3652926Y-4488484D01*
X3639769Y-4484928D01*
X3626307Y-4483100D01*
X3612692Y-4483100D01*
X3599230Y-4484928D01*
X3586073Y-4488484D01*
X3573576Y-4493818D01*
X3561892Y-4500727D01*
X3551174Y-4509160D01*
X3541725Y-4518964D01*
X3533648Y-4529886D01*
X3527145Y-4541824D01*
X3522218Y-4554524D01*
X3519068Y-4567783D01*
X3517747Y-4581296D01*
X3518204Y-4594910D01*
X3520440Y-4608322D01*
X3524453Y-4621276D01*
X3530193Y-4633620D01*
X3537508Y-4645101D01*
X3546297Y-4655515D01*
X3556406Y-4664608D01*
X3567582Y-4672330D01*
X3579723Y-4678426D01*
X3592576Y-4682896D01*
X3605936Y-4685639D01*
G37*
G36*
X4127500Y-4686554D02*
G01*
X4141063Y-4685639D01*
X4154424Y-4682896D01*
X4167276Y-4678426D01*
X4179417Y-4672330D01*
X4190593Y-4664608D01*
X4200702Y-4655515D01*
X4209491Y-4645101D01*
X4216806Y-4633620D01*
X4222546Y-4621276D01*
X4226560Y-4608322D01*
X4228795Y-4594910D01*
X4229252Y-4581296D01*
X4227931Y-4567783D01*
X4224782Y-4554524D01*
X4219854Y-4541824D01*
X4213352Y-4529886D01*
X4205274Y-4518964D01*
X4195826Y-4509160D01*
X4185107Y-4500727D01*
X4173423Y-4493818D01*
X4160926Y-4488484D01*
X4147769Y-4484928D01*
X4134307Y-4483100D01*
X4120692Y-4483100D01*
X4107230Y-4484928D01*
X4094073Y-4488484D01*
X4081576Y-4493818D01*
X4069892Y-4500727D01*
X4059174Y-4509160D01*
X4049725Y-4518964D01*
X4041648Y-4529886D01*
X4035145Y-4541824D01*
X4030218Y-4554524D01*
X4027068Y-4567783D01*
X4025747Y-4581296D01*
X4026204Y-4594910D01*
X4028440Y-4608322D01*
X4032453Y-4621276D01*
X4038193Y-4633620D01*
X4045508Y-4645101D01*
X4054297Y-4655515D01*
X4064406Y-4664608D01*
X4075582Y-4672330D01*
X4087723Y-4678426D01*
X4100576Y-4682896D01*
X4113936Y-4685639D01*
G37*
G36*
X2603500Y-4686554D02*
G01*
X2617063Y-4685639D01*
X2630424Y-4682896D01*
X2643276Y-4678426D01*
X2655417Y-4672330D01*
X2666593Y-4664608D01*
X2676702Y-4655515D01*
X2685491Y-4645101D01*
X2692806Y-4633620D01*
X2698546Y-4621276D01*
X2702560Y-4608322D01*
X2704795Y-4594910D01*
X2705252Y-4581296D01*
X2703931Y-4567783D01*
X2700782Y-4554524D01*
X2695854Y-4541824D01*
X2689352Y-4529886D01*
X2681274Y-4518964D01*
X2671826Y-4509160D01*
X2661107Y-4500727D01*
X2649423Y-4493818D01*
X2636926Y-4488484D01*
X2623769Y-4484928D01*
X2610307Y-4483100D01*
X2596692Y-4483100D01*
X2583230Y-4484928D01*
X2570073Y-4488484D01*
X2557576Y-4493818D01*
X2545892Y-4500727D01*
X2535174Y-4509160D01*
X2525725Y-4518964D01*
X2517648Y-4529886D01*
X2511145Y-4541824D01*
X2506218Y-4554524D01*
X2503068Y-4567783D01*
X2501747Y-4581296D01*
X2502204Y-4594910D01*
X2504440Y-4608322D01*
X2508453Y-4621276D01*
X2514193Y-4633620D01*
X2521508Y-4645101D01*
X2530297Y-4655515D01*
X2540406Y-4664608D01*
X2551582Y-4672330D01*
X2563723Y-4678426D01*
X2576576Y-4682896D01*
X2589936Y-4685639D01*
G37*
G36*
X2095500Y-4686554D02*
G01*
X2109063Y-4685639D01*
X2122424Y-4682896D01*
X2135276Y-4678426D01*
X2147417Y-4672330D01*
X2158593Y-4664608D01*
X2168702Y-4655515D01*
X2177491Y-4645101D01*
X2184806Y-4633620D01*
X2190546Y-4621276D01*
X2194560Y-4608322D01*
X2196795Y-4594910D01*
X2197252Y-4581296D01*
X2195931Y-4567783D01*
X2192782Y-4554524D01*
X2187854Y-4541824D01*
X2181352Y-4529886D01*
X2173274Y-4518964D01*
X2163826Y-4509160D01*
X2153107Y-4500727D01*
X2141423Y-4493818D01*
X2128926Y-4488484D01*
X2115769Y-4484928D01*
X2102307Y-4483100D01*
X2088692Y-4483100D01*
X2075230Y-4484928D01*
X2062073Y-4488484D01*
X2049576Y-4493818D01*
X2037892Y-4500727D01*
X2027174Y-4509160D01*
X2017725Y-4518964D01*
X2009648Y-4529886D01*
X2003145Y-4541824D01*
X1998218Y-4554524D01*
X1995068Y-4567783D01*
X1993747Y-4581296D01*
X1994204Y-4594910D01*
X1996439Y-4608322D01*
X2000453Y-4621276D01*
X2006193Y-4633620D01*
X2013508Y-4645101D01*
X2022297Y-4655515D01*
X2032406Y-4664608D01*
X2043582Y-4672330D01*
X2055723Y-4678426D01*
X2068575Y-4682896D01*
X2081936Y-4685639D01*
G37*
G36*
X4381500Y-4686554D02*
G01*
X4395063Y-4685639D01*
X4408424Y-4682896D01*
X4421276Y-4678426D01*
X4433417Y-4672330D01*
X4444593Y-4664608D01*
X4454702Y-4655515D01*
X4463491Y-4645101D01*
X4470806Y-4633620D01*
X4476546Y-4621276D01*
X4480560Y-4608322D01*
X4482795Y-4594910D01*
X4483252Y-4581296D01*
X4481931Y-4567783D01*
X4478782Y-4554524D01*
X4473854Y-4541824D01*
X4467352Y-4529886D01*
X4459274Y-4518964D01*
X4449826Y-4509160D01*
X4439107Y-4500727D01*
X4427423Y-4493818D01*
X4414926Y-4488484D01*
X4401769Y-4484928D01*
X4388307Y-4483100D01*
X4374692Y-4483100D01*
X4361230Y-4484928D01*
X4348073Y-4488484D01*
X4335576Y-4493818D01*
X4323892Y-4500727D01*
X4313174Y-4509160D01*
X4303725Y-4518964D01*
X4295648Y-4529886D01*
X4289145Y-4541824D01*
X4284218Y-4554524D01*
X4281068Y-4567783D01*
X4279747Y-4581296D01*
X4280204Y-4594910D01*
X4282440Y-4608322D01*
X4286453Y-4621276D01*
X4292193Y-4633620D01*
X4299508Y-4645101D01*
X4308297Y-4655515D01*
X4318406Y-4664608D01*
X4329582Y-4672330D01*
X4341723Y-4678426D01*
X4354576Y-4682896D01*
X4367936Y-4685639D01*
G37*
G36*
X3365500Y-4686554D02*
G01*
X3379063Y-4685639D01*
X3392424Y-4682896D01*
X3405276Y-4678426D01*
X3417417Y-4672330D01*
X3428593Y-4664608D01*
X3438702Y-4655515D01*
X3447491Y-4645101D01*
X3454806Y-4633620D01*
X3460546Y-4621276D01*
X3464560Y-4608322D01*
X3466795Y-4594910D01*
X3467252Y-4581296D01*
X3465931Y-4567783D01*
X3462782Y-4554524D01*
X3457854Y-4541824D01*
X3451351Y-4529886D01*
X3443274Y-4518964D01*
X3433826Y-4509160D01*
X3423107Y-4500727D01*
X3411423Y-4493818D01*
X3398926Y-4488484D01*
X3385769Y-4484928D01*
X3372307Y-4483100D01*
X3358692Y-4483100D01*
X3345230Y-4484928D01*
X3332073Y-4488484D01*
X3319576Y-4493818D01*
X3307892Y-4500727D01*
X3297174Y-4509160D01*
X3287725Y-4518964D01*
X3279648Y-4529886D01*
X3273145Y-4541824D01*
X3268217Y-4554524D01*
X3265068Y-4567783D01*
X3263747Y-4581296D01*
X3264204Y-4594910D01*
X3266440Y-4608322D01*
X3270453Y-4621276D01*
X3276193Y-4633620D01*
X3283508Y-4645101D01*
X3292297Y-4655515D01*
X3302406Y-4664608D01*
X3313582Y-4672330D01*
X3325723Y-4678426D01*
X3338576Y-4682896D01*
X3351936Y-4685639D01*
G37*
G36*
X3873500Y-4686554D02*
G01*
X3887063Y-4685639D01*
X3900424Y-4682896D01*
X3913276Y-4678426D01*
X3925417Y-4672330D01*
X3936593Y-4664608D01*
X3946702Y-4655515D01*
X3955491Y-4645101D01*
X3962806Y-4633620D01*
X3968546Y-4621276D01*
X3972560Y-4608322D01*
X3974795Y-4594910D01*
X3975252Y-4581296D01*
X3973931Y-4567783D01*
X3970782Y-4554524D01*
X3965854Y-4541824D01*
X3959351Y-4529886D01*
X3951274Y-4518964D01*
X3941826Y-4509160D01*
X3931107Y-4500727D01*
X3919423Y-4493818D01*
X3906926Y-4488484D01*
X3893769Y-4484928D01*
X3880307Y-4483100D01*
X3866692Y-4483100D01*
X3853230Y-4484928D01*
X3840073Y-4488484D01*
X3827576Y-4493818D01*
X3815892Y-4500727D01*
X3805174Y-4509160D01*
X3795725Y-4518964D01*
X3787648Y-4529886D01*
X3781145Y-4541824D01*
X3776218Y-4554524D01*
X3773068Y-4567783D01*
X3771747Y-4581296D01*
X3772204Y-4594910D01*
X3774440Y-4608322D01*
X3778453Y-4621276D01*
X3784193Y-4633620D01*
X3791508Y-4645101D01*
X3800297Y-4655515D01*
X3810406Y-4664608D01*
X3821582Y-4672330D01*
X3833723Y-4678426D01*
X3846576Y-4682896D01*
X3859936Y-4685639D01*
G37*
G36*
X2349500Y-4686554D02*
G01*
X2363063Y-4685639D01*
X2376424Y-4682896D01*
X2389276Y-4678426D01*
X2401417Y-4672330D01*
X2412593Y-4664608D01*
X2422702Y-4655515D01*
X2431491Y-4645101D01*
X2438806Y-4633620D01*
X2444546Y-4621276D01*
X2448560Y-4608322D01*
X2450795Y-4594910D01*
X2451252Y-4581296D01*
X2449931Y-4567783D01*
X2446782Y-4554524D01*
X2441854Y-4541824D01*
X2435352Y-4529886D01*
X2427274Y-4518964D01*
X2417826Y-4509160D01*
X2407107Y-4500727D01*
X2395423Y-4493818D01*
X2382926Y-4488484D01*
X2369769Y-4484928D01*
X2356307Y-4483100D01*
X2342692Y-4483100D01*
X2329230Y-4484928D01*
X2316073Y-4488484D01*
X2303576Y-4493818D01*
X2291892Y-4500727D01*
X2281174Y-4509160D01*
X2271725Y-4518964D01*
X2263648Y-4529886D01*
X2257145Y-4541824D01*
X2252218Y-4554524D01*
X2249068Y-4567783D01*
X2247747Y-4581296D01*
X2248204Y-4594910D01*
X2250440Y-4608322D01*
X2254453Y-4621276D01*
X2260193Y-4633620D01*
X2267508Y-4645101D01*
X2276297Y-4655515D01*
X2286406Y-4664608D01*
X2297582Y-4672330D01*
X2309723Y-4678426D01*
X2322576Y-4682896D01*
X2335936Y-4685639D01*
G37*
G36*
X4635500Y-4686554D02*
G01*
X4649063Y-4685639D01*
X4662424Y-4682896D01*
X4675276Y-4678426D01*
X4687417Y-4672330D01*
X4698593Y-4664608D01*
X4708702Y-4655515D01*
X4717491Y-4645101D01*
X4724806Y-4633620D01*
X4730546Y-4621276D01*
X4734560Y-4608322D01*
X4736795Y-4594910D01*
X4737252Y-4581296D01*
X4735931Y-4567783D01*
X4732782Y-4554524D01*
X4727854Y-4541824D01*
X4721352Y-4529886D01*
X4713274Y-4518964D01*
X4703826Y-4509160D01*
X4693107Y-4500727D01*
X4681423Y-4493818D01*
X4668926Y-4488484D01*
X4655769Y-4484928D01*
X4642307Y-4483100D01*
X4628692Y-4483100D01*
X4615230Y-4484928D01*
X4602073Y-4488484D01*
X4589576Y-4493818D01*
X4577892Y-4500727D01*
X4567174Y-4509160D01*
X4557725Y-4518964D01*
X4549648Y-4529886D01*
X4543145Y-4541824D01*
X4538218Y-4554524D01*
X4535068Y-4567783D01*
X4533747Y-4581296D01*
X4534204Y-4594910D01*
X4536440Y-4608322D01*
X4540453Y-4621276D01*
X4546193Y-4633620D01*
X4553508Y-4645101D01*
X4562297Y-4655515D01*
X4572406Y-4664608D01*
X4583582Y-4672330D01*
X4595723Y-4678426D01*
X4608576Y-4682896D01*
X4621936Y-4685639D01*
G37*
G36*
X2857500Y-4686554D02*
G01*
X2871063Y-4685639D01*
X2884424Y-4682896D01*
X2897276Y-4678426D01*
X2909417Y-4672330D01*
X2920593Y-4664608D01*
X2930702Y-4655515D01*
X2939491Y-4645101D01*
X2946806Y-4633620D01*
X2952546Y-4621276D01*
X2956560Y-4608322D01*
X2958795Y-4594910D01*
X2959252Y-4581296D01*
X2957931Y-4567783D01*
X2954782Y-4554524D01*
X2949854Y-4541824D01*
X2943352Y-4529886D01*
X2935274Y-4518964D01*
X2925826Y-4509160D01*
X2915107Y-4500727D01*
X2903423Y-4493818D01*
X2890926Y-4488484D01*
X2877769Y-4484928D01*
X2864307Y-4483100D01*
X2850692Y-4483100D01*
X2837230Y-4484928D01*
X2824073Y-4488484D01*
X2811576Y-4493818D01*
X2799892Y-4500727D01*
X2789174Y-4509160D01*
X2779725Y-4518964D01*
X2771648Y-4529886D01*
X2765145Y-4541824D01*
X2760218Y-4554524D01*
X2757068Y-4567783D01*
X2755747Y-4581296D01*
X2756204Y-4594910D01*
X2758440Y-4608322D01*
X2762453Y-4621276D01*
X2768193Y-4633620D01*
X2775508Y-4645101D01*
X2784297Y-4655515D01*
X2794406Y-4664608D01*
X2805582Y-4672330D01*
X2817723Y-4678426D01*
X2830576Y-4682896D01*
X2843936Y-4685639D01*
G37*
G36*
X3111500Y-4686554D02*
G01*
X3125063Y-4685639D01*
X3138424Y-4682896D01*
X3151276Y-4678426D01*
X3163417Y-4672330D01*
X3174593Y-4664608D01*
X3184702Y-4655515D01*
X3193491Y-4645101D01*
X3200806Y-4633620D01*
X3206546Y-4621276D01*
X3210560Y-4608322D01*
X3212795Y-4594910D01*
X3213252Y-4581296D01*
X3211931Y-4567783D01*
X3208782Y-4554524D01*
X3203854Y-4541824D01*
X3197352Y-4529886D01*
X3189274Y-4518964D01*
X3179826Y-4509160D01*
X3169107Y-4500727D01*
X3157423Y-4493818D01*
X3144926Y-4488484D01*
X3131769Y-4484928D01*
X3118307Y-4483100D01*
X3104692Y-4483100D01*
X3091230Y-4484928D01*
X3078073Y-4488484D01*
X3065576Y-4493818D01*
X3053892Y-4500727D01*
X3043174Y-4509160D01*
X3033725Y-4518964D01*
X3025648Y-4529886D01*
X3019145Y-4541824D01*
X3014218Y-4554524D01*
X3011068Y-4567783D01*
X3009747Y-4581296D01*
X3010204Y-4594910D01*
X3012440Y-4608322D01*
X3016453Y-4621276D01*
X3022193Y-4633620D01*
X3029508Y-4645101D01*
X3038297Y-4655515D01*
X3048406Y-4664608D01*
X3059582Y-4672330D01*
X3071723Y-4678426D01*
X3084576Y-4682896D01*
X3097936Y-4685639D01*
G37*
G36*
X1841500Y-4686554D02*
G01*
X1855063Y-4685639D01*
X1868424Y-4682896D01*
X1881276Y-4678426D01*
X1893417Y-4672330D01*
X1904593Y-4664608D01*
X1914702Y-4655515D01*
X1923491Y-4645101D01*
X1930806Y-4633620D01*
X1936546Y-4621276D01*
X1940560Y-4608322D01*
X1942795Y-4594910D01*
X1943252Y-4581296D01*
X1941931Y-4567783D01*
X1938782Y-4554524D01*
X1933854Y-4541824D01*
X1927352Y-4529886D01*
X1919274Y-4518964D01*
X1909825Y-4509160D01*
X1899107Y-4500727D01*
X1887423Y-4493818D01*
X1874926Y-4488484D01*
X1861769Y-4484928D01*
X1848307Y-4483100D01*
X1834692Y-4483100D01*
X1821230Y-4484928D01*
X1808073Y-4488484D01*
X1795576Y-4493818D01*
X1783892Y-4500727D01*
X1773174Y-4509160D01*
X1763725Y-4518964D01*
X1755648Y-4529886D01*
X1749145Y-4541824D01*
X1744218Y-4554524D01*
X1741068Y-4567783D01*
X1739747Y-4581296D01*
X1740204Y-4594910D01*
X1742439Y-4608322D01*
X1746453Y-4621276D01*
X1752193Y-4633620D01*
X1759508Y-4645101D01*
X1768297Y-4655515D01*
X1778406Y-4664608D01*
X1789582Y-4672330D01*
X1801723Y-4678426D01*
X1814575Y-4682896D01*
X1827936Y-4685639D01*
G37*
G36*
X1079500Y-4686554D02*
G01*
X1093063Y-4685639D01*
X1106424Y-4682896D01*
X1119276Y-4678426D01*
X1131417Y-4672330D01*
X1142593Y-4664608D01*
X1152702Y-4655515D01*
X1161491Y-4645101D01*
X1168806Y-4633620D01*
X1174546Y-4621276D01*
X1178560Y-4608322D01*
X1180795Y-4594910D01*
X1181252Y-4581296D01*
X1179931Y-4567783D01*
X1176782Y-4554524D01*
X1171854Y-4541824D01*
X1165352Y-4529886D01*
X1157274Y-4518964D01*
X1147826Y-4509160D01*
X1137107Y-4500727D01*
X1125423Y-4493818D01*
X1112926Y-4488484D01*
X1099769Y-4484928D01*
X1086307Y-4483100D01*
X1072692Y-4483100D01*
X1059230Y-4484928D01*
X1046073Y-4488484D01*
X1033576Y-4493818D01*
X1021892Y-4500727D01*
X1011174Y-4509160D01*
X1001725Y-4518964D01*
X993648Y-4529886D01*
X987145Y-4541824D01*
X982218Y-4554524D01*
X979068Y-4567783D01*
X977747Y-4581296D01*
X978204Y-4594910D01*
X980440Y-4608322D01*
X984453Y-4621276D01*
X990193Y-4633620D01*
X997508Y-4645101D01*
X1006297Y-4655515D01*
X1016406Y-4664608D01*
X1027582Y-4672330D01*
X1039723Y-4678426D01*
X1052576Y-4682896D01*
X1065936Y-4685639D01*
G37*
G36*
X1587500Y-4686554D02*
G01*
X1601063Y-4685639D01*
X1614424Y-4682896D01*
X1627276Y-4678426D01*
X1639417Y-4672330D01*
X1650593Y-4664608D01*
X1660702Y-4655515D01*
X1669491Y-4645101D01*
X1676806Y-4633620D01*
X1682546Y-4621276D01*
X1686560Y-4608322D01*
X1688795Y-4594910D01*
X1689252Y-4581296D01*
X1687931Y-4567783D01*
X1684782Y-4554524D01*
X1679854Y-4541824D01*
X1673352Y-4529886D01*
X1665274Y-4518964D01*
X1655825Y-4509160D01*
X1645107Y-4500727D01*
X1633423Y-4493818D01*
X1620926Y-4488484D01*
X1607769Y-4484928D01*
X1594307Y-4483100D01*
X1580692Y-4483100D01*
X1567230Y-4484928D01*
X1554073Y-4488484D01*
X1541576Y-4493818D01*
X1529892Y-4500727D01*
X1519174Y-4509160D01*
X1509725Y-4518964D01*
X1501648Y-4529886D01*
X1495145Y-4541824D01*
X1490218Y-4554524D01*
X1487068Y-4567783D01*
X1485747Y-4581296D01*
X1486204Y-4594910D01*
X1488440Y-4608322D01*
X1492453Y-4621276D01*
X1498193Y-4633620D01*
X1505508Y-4645101D01*
X1514297Y-4655515D01*
X1524406Y-4664608D01*
X1535582Y-4672330D01*
X1547723Y-4678426D01*
X1560576Y-4682896D01*
X1573936Y-4685639D01*
G37*
G36*
X1377950Y-4676089D02*
G01*
X1385417Y-4672330D01*
X1396593Y-4664608D01*
X1406702Y-4655515D01*
X1415491Y-4645101D01*
X1422806Y-4633620D01*
X1424889Y-4629150D01*
X1377950Y-4629150D01*
G37*
G36*
X1289050Y-4676089D02*
G01*
X1289050Y-4629150D01*
X1242110Y-4629150D01*
X1244193Y-4633620D01*
X1251508Y-4645101D01*
X1260297Y-4655515D01*
X1270406Y-4664608D01*
X1281582Y-4672330D01*
G37*
G36*
X5588000Y-4598720D02*
G01*
X5602478Y-4597806D01*
X5616752Y-4595114D01*
X5630570Y-4590592D01*
X5643727Y-4584446D01*
X5655970Y-4576673D01*
X5667146Y-4567377D01*
X5677103Y-4556810D01*
X5685637Y-4545076D01*
X5692648Y-4532325D01*
X5697982Y-4518812D01*
X5701588Y-4504791D01*
X5703417Y-4490364D01*
X5703417Y-4475835D01*
X5701588Y-4461408D01*
X5697982Y-4447387D01*
X5692648Y-4433874D01*
X5685637Y-4421124D01*
X5677103Y-4409389D01*
X5667146Y-4398822D01*
X5655970Y-4389526D01*
X5643727Y-4381754D01*
X5630570Y-4375607D01*
X5616752Y-4371086D01*
X5602478Y-4368393D01*
X5588000Y-4367479D01*
X5573522Y-4368393D01*
X5559247Y-4371086D01*
X5545429Y-4375607D01*
X5532272Y-4381754D01*
X5520029Y-4389526D01*
X5508853Y-4398822D01*
X5498896Y-4409389D01*
X5490362Y-4421124D01*
X5483352Y-4433874D01*
X5478018Y-4447387D01*
X5474411Y-4461408D01*
X5472582Y-4475835D01*
X5472582Y-4490364D01*
X5474411Y-4504791D01*
X5478018Y-4518812D01*
X5483352Y-4532325D01*
X5490362Y-4545076D01*
X5498896Y-4556810D01*
X5508853Y-4567377D01*
X5520029Y-4576673D01*
X5532272Y-4584446D01*
X5545429Y-4590592D01*
X5559247Y-4595114D01*
X5573522Y-4597806D01*
G37*
G36*
X6280150Y-4552950D02*
G01*
X6327089Y-4552950D01*
X6325006Y-4548479D01*
X6317691Y-4536998D01*
X6308902Y-4526584D01*
X6298793Y-4517491D01*
X6287617Y-4509770D01*
X6280150Y-4506010D01*
G37*
G36*
X8058150Y-4552950D02*
G01*
X8105089Y-4552950D01*
X8103006Y-4548479D01*
X8095691Y-4536998D01*
X8086902Y-4526584D01*
X8076793Y-4517491D01*
X8065617Y-4509770D01*
X8058150Y-4506010D01*
G37*
G36*
X6144310Y-4552950D02*
G01*
X6191250Y-4552950D01*
X6191250Y-4506010D01*
X6183782Y-4509770D01*
X6172606Y-4517491D01*
X6162497Y-4526584D01*
X6153708Y-4536998D01*
X6146393Y-4548479D01*
G37*
G36*
X7922310Y-4552950D02*
G01*
X7969250Y-4552950D01*
X7969250Y-4506010D01*
X7961782Y-4509770D01*
X7950606Y-4517491D01*
X7940497Y-4526584D01*
X7931708Y-4536998D01*
X7924393Y-4548479D01*
G37*
G36*
X1242009Y-4540250D02*
G01*
X1289050Y-4540250D01*
X1289050Y-4493209D01*
X1287576Y-4493818D01*
X1275892Y-4500727D01*
X1265174Y-4509160D01*
X1255725Y-4518964D01*
X1247648Y-4529886D01*
G37*
G36*
X1377950Y-4540250D02*
G01*
X1424990Y-4540250D01*
X1419352Y-4529886D01*
X1411274Y-4518964D01*
X1401826Y-4509160D01*
X1391107Y-4500727D01*
X1379423Y-4493818D01*
X1377950Y-4493209D01*
G37*
G36*
X5536641Y-4332478D02*
G01*
X5536641Y-4280458D01*
X5484520Y-4280458D01*
X5490362Y-4291076D01*
X5498896Y-4302810D01*
X5508853Y-4313377D01*
X5520029Y-4322673D01*
X5532272Y-4330446D01*
G37*
G36*
X5639358Y-4332478D02*
G01*
X5643727Y-4330446D01*
X5655970Y-4322673D01*
X5667146Y-4313377D01*
X5677103Y-4302810D01*
X5685637Y-4291076D01*
X5691479Y-4280458D01*
X5639358Y-4280458D01*
G37*
G36*
X2241092Y-4223410D02*
G01*
X2254707Y-4223410D01*
X2268169Y-4221581D01*
X2281326Y-4217974D01*
X2293823Y-4212691D01*
X2305507Y-4205732D01*
X2316226Y-4197299D01*
X2325674Y-4187545D01*
X2333752Y-4176572D01*
X2340254Y-4164685D01*
X2345182Y-4151985D01*
X2348331Y-4138726D01*
X2349652Y-4125214D01*
X2349195Y-4111599D01*
X2346960Y-4098188D01*
X2342946Y-4085183D01*
X2337206Y-4072839D01*
X2329891Y-4061409D01*
X2321102Y-4050995D01*
X2310993Y-4041901D01*
X2299817Y-4034180D01*
X2287676Y-4028033D01*
X2274824Y-4023563D01*
X2261463Y-4020870D01*
X2247900Y-4019956D01*
X2234336Y-4020870D01*
X2220976Y-4023563D01*
X2208123Y-4028033D01*
X2195982Y-4034180D01*
X2184806Y-4041901D01*
X2174697Y-4050995D01*
X2165908Y-4061409D01*
X2158593Y-4072839D01*
X2152853Y-4085183D01*
X2148840Y-4098188D01*
X2146604Y-4111599D01*
X2146147Y-4125214D01*
X2147468Y-4138726D01*
X2150618Y-4151985D01*
X2155545Y-4164685D01*
X2162048Y-4176572D01*
X2170125Y-4187545D01*
X2179574Y-4197299D01*
X2190292Y-4205732D01*
X2201976Y-4212691D01*
X2214473Y-4217974D01*
X2227630Y-4221581D01*
G37*
G36*
X5639358Y-4177741D02*
G01*
X5691479Y-4177741D01*
X5685637Y-4167124D01*
X5677103Y-4155389D01*
X5667146Y-4144822D01*
X5655970Y-4135526D01*
X5643727Y-4127754D01*
X5639358Y-4125722D01*
G37*
G36*
X5484520Y-4177741D02*
G01*
X5536641Y-4177741D01*
X5536641Y-4125722D01*
X5532272Y-4127754D01*
X5520029Y-4135526D01*
X5508853Y-4144822D01*
X5498896Y-4155389D01*
X5490362Y-4167124D01*
G37*
G36*
X6501638Y-3928211D02*
G01*
X6501638Y-3885336D01*
X6458712Y-3885336D01*
X6459067Y-3886250D01*
X6465366Y-3897172D01*
X6473139Y-3907129D01*
X6482232Y-3915918D01*
X6492494Y-3923334D01*
G37*
G36*
X6579362Y-3928211D02*
G01*
X6588506Y-3923334D01*
X6598767Y-3915918D01*
X6607860Y-3907129D01*
X6615633Y-3897172D01*
X6621932Y-3886250D01*
X6622288Y-3885336D01*
X6579362Y-3885336D01*
G37*
G36*
X5498592Y-3888994D02*
G01*
X5677408Y-3888994D01*
X5683707Y-3888282D01*
X5689092Y-3886403D01*
X5693968Y-3883355D01*
X5697982Y-3879291D01*
X5701080Y-3874465D01*
X5702960Y-3869029D01*
X5703671Y-3862781D01*
X5703671Y-3706418D01*
X5702960Y-3700170D01*
X5701080Y-3694734D01*
X5697982Y-3689908D01*
X5693968Y-3685844D01*
X5689092Y-3682796D01*
X5683707Y-3680917D01*
X5677408Y-3680206D01*
X5498592Y-3680206D01*
X5492292Y-3680917D01*
X5486908Y-3682796D01*
X5482031Y-3685844D01*
X5478018Y-3689908D01*
X5474970Y-3694734D01*
X5473039Y-3700170D01*
X5472328Y-3706418D01*
X5472328Y-3862781D01*
X5473039Y-3869029D01*
X5474970Y-3874465D01*
X5478018Y-3879291D01*
X5482031Y-3883355D01*
X5486908Y-3886403D01*
X5492292Y-3888282D01*
G37*
G36*
X2909976Y-3837635D02*
G01*
X2925165Y-3836720D01*
X2940050Y-3833977D01*
X2954528Y-3829456D01*
X2968396Y-3823258D01*
X2981350Y-3815384D01*
X2993288Y-3806037D01*
X3004058Y-3795318D01*
X3013405Y-3783380D01*
X3021228Y-3770376D01*
X3027476Y-3756558D01*
X3031998Y-3742080D01*
X3034741Y-3727145D01*
X3035655Y-3712006D01*
X3034741Y-3696868D01*
X3031998Y-3681933D01*
X3027476Y-3667455D01*
X3021228Y-3653637D01*
X3013405Y-3640632D01*
X3004058Y-3628694D01*
X2993288Y-3617976D01*
X2981350Y-3608628D01*
X2968396Y-3600754D01*
X2954528Y-3594557D01*
X2940050Y-3590036D01*
X2925165Y-3587292D01*
X2909976Y-3586378D01*
X2894838Y-3587292D01*
X2879953Y-3590036D01*
X2865424Y-3594557D01*
X2851607Y-3600754D01*
X2838653Y-3608628D01*
X2826664Y-3617976D01*
X2815945Y-3628694D01*
X2806598Y-3640632D01*
X2798775Y-3653637D01*
X2792526Y-3667455D01*
X2788005Y-3681933D01*
X2785262Y-3696868D01*
X2784348Y-3712006D01*
X2785262Y-3727145D01*
X2788005Y-3742080D01*
X2792526Y-3756558D01*
X2798775Y-3770376D01*
X2806598Y-3783380D01*
X2815945Y-3795318D01*
X2826664Y-3806037D01*
X2838653Y-3815384D01*
X2851607Y-3823258D01*
X2865424Y-3829456D01*
X2879953Y-3833977D01*
X2894838Y-3836720D01*
G37*
G36*
X4766360Y-3824173D02*
G01*
X4768392Y-3823258D01*
X4781346Y-3815384D01*
X4793284Y-3806037D01*
X4804054Y-3795318D01*
X4813401Y-3783380D01*
X4821224Y-3770376D01*
X4822139Y-3768344D01*
X4766360Y-3768344D01*
G37*
G36*
X4653635Y-3824173D02*
G01*
X4653635Y-3768344D01*
X4597857Y-3768344D01*
X4598771Y-3770376D01*
X4606594Y-3783380D01*
X4615942Y-3795318D01*
X4626711Y-3806037D01*
X4638649Y-3815384D01*
X4651603Y-3823258D01*
G37*
G36*
X6458864Y-3807663D02*
G01*
X6501638Y-3807663D01*
X6501638Y-3764838D01*
X6497929Y-3766464D01*
X6487210Y-3773170D01*
X6477558Y-3781298D01*
X6469075Y-3790696D01*
X6462014Y-3801160D01*
G37*
G36*
X6579362Y-3807663D02*
G01*
X6622135Y-3807663D01*
X6618986Y-3801160D01*
X6611924Y-3790696D01*
X6603441Y-3781298D01*
X6593789Y-3773170D01*
X6583070Y-3766464D01*
X6579362Y-3764838D01*
G37*
G36*
X6540500Y-3737152D02*
G01*
X6553098Y-3736238D01*
X6565493Y-3733596D01*
X6577380Y-3729278D01*
X6588506Y-3723335D01*
X6598767Y-3715918D01*
X6607860Y-3707129D01*
X6615633Y-3697173D01*
X6621932Y-3686251D01*
X6626707Y-3674516D01*
X6629755Y-3662222D01*
X6631076Y-3649675D01*
X6630619Y-3637026D01*
X6628434Y-3624579D01*
X6624523Y-3612540D01*
X6618986Y-3601161D01*
X6611924Y-3590696D01*
X6603441Y-3581298D01*
X6593789Y-3573170D01*
X6583070Y-3566464D01*
X6571488Y-3561334D01*
X6559346Y-3557828D01*
X6546799Y-3556101D01*
X6534200Y-3556101D01*
X6521653Y-3557828D01*
X6509512Y-3561334D01*
X6501434Y-3564940D01*
X6497523Y-3565804D01*
X6493510Y-3565042D01*
X6490157Y-3562807D01*
X6081826Y-3154476D01*
X6079591Y-3151225D01*
X6078829Y-3147314D01*
X6079591Y-3143402D01*
X6081826Y-3140151D01*
X6085128Y-3137916D01*
X6088989Y-3137154D01*
X6440982Y-3137154D01*
X6445250Y-3138068D01*
X6448704Y-3140710D01*
X6455562Y-3148736D01*
X6462420Y-3154578D01*
X6465011Y-3158032D01*
X6465976Y-3162300D01*
X6465011Y-3166567D01*
X6462420Y-3170021D01*
X6455562Y-3175863D01*
X6448348Y-3184296D01*
X6442557Y-3193745D01*
X6441236Y-3196945D01*
X6494170Y-3196945D01*
X6494170Y-3179521D01*
X6494983Y-3175457D01*
X6497421Y-3172053D01*
X6500977Y-3169920D01*
X6505905Y-3169462D01*
X6575094Y-3169462D01*
X6580022Y-3169920D01*
X6583578Y-3172053D01*
X6586016Y-3175457D01*
X6586829Y-3179521D01*
X6586829Y-3196945D01*
X6639763Y-3196945D01*
X6638442Y-3193745D01*
X6632651Y-3184296D01*
X6625437Y-3175863D01*
X6618579Y-3170021D01*
X6615988Y-3166567D01*
X6615023Y-3162300D01*
X6615988Y-3158032D01*
X6618579Y-3154578D01*
X6625437Y-3148736D01*
X6632651Y-3140303D01*
X6638442Y-3130854D01*
X6642658Y-3120644D01*
X6645249Y-3109823D01*
X6646113Y-3098800D01*
X6645249Y-3087776D01*
X6642658Y-3076956D01*
X6638442Y-3066745D01*
X6632651Y-3057296D01*
X6630212Y-3054451D01*
X6628180Y-3050641D01*
X6627926Y-3046323D01*
X6629450Y-3042310D01*
X6632549Y-3039262D01*
X6636461Y-3036824D01*
X6640525Y-3032760D01*
X6643573Y-3027883D01*
X6645452Y-3022498D01*
X6646164Y-3016250D01*
X6646164Y-2940100D01*
X6646925Y-2936189D01*
X6649110Y-2932887D01*
X6933031Y-2649016D01*
X6936282Y-2646832D01*
X6940092Y-2646019D01*
X6943953Y-2646781D01*
X6952081Y-2649982D01*
X6966153Y-2653588D01*
X6980529Y-2655417D01*
X6995058Y-2655417D01*
X7009485Y-2653588D01*
X7023557Y-2649982D01*
X7037019Y-2644648D01*
X7049770Y-2637637D01*
X7061504Y-2629103D01*
X7072071Y-2619146D01*
X7081367Y-2607970D01*
X7089140Y-2595727D01*
X7095337Y-2582570D01*
X7099808Y-2568752D01*
X7102500Y-2554478D01*
X7103414Y-2540000D01*
X7102500Y-2525522D01*
X7099808Y-2511247D01*
X7095337Y-2497429D01*
X7089140Y-2484272D01*
X7081367Y-2472029D01*
X7072071Y-2460853D01*
X7061504Y-2450896D01*
X7049770Y-2442362D01*
X7037019Y-2435352D01*
X7023557Y-2430018D01*
X7009485Y-2426411D01*
X6995058Y-2424582D01*
X6980529Y-2424582D01*
X6966153Y-2426411D01*
X6952081Y-2430018D01*
X6938568Y-2435352D01*
X6925818Y-2442362D01*
X6914083Y-2450896D01*
X6903516Y-2460853D01*
X6894271Y-2472029D01*
X6886448Y-2484272D01*
X6880301Y-2497429D01*
X6875780Y-2511247D01*
X6873087Y-2525522D01*
X6872173Y-2540000D01*
X6873087Y-2554478D01*
X6875780Y-2568752D01*
X6880301Y-2582570D01*
X6881622Y-2587396D01*
X6880910Y-2591460D01*
X6878675Y-2594914D01*
X6575399Y-2898190D01*
X6572097Y-2900375D01*
X6568186Y-2901137D01*
X6461048Y-2901137D01*
X6454800Y-2901848D01*
X6449415Y-2903728D01*
X6444538Y-2906776D01*
X6440474Y-2910840D01*
X6437426Y-2915716D01*
X6435547Y-2921101D01*
X6435191Y-2924403D01*
X6434124Y-2927959D01*
X6431838Y-2930855D01*
X6428689Y-2932785D01*
X6425082Y-2933446D01*
X5773216Y-2933446D01*
X5769305Y-2932684D01*
X5766003Y-2930448D01*
X5697016Y-2861462D01*
X5694832Y-2858211D01*
X5694070Y-2854401D01*
X5694781Y-2850540D01*
X5697982Y-2842412D01*
X5701588Y-2828391D01*
X5703417Y-2813964D01*
X5703417Y-2799435D01*
X5701588Y-2785008D01*
X5697982Y-2770987D01*
X5692648Y-2757474D01*
X5685637Y-2744724D01*
X5677103Y-2732989D01*
X5667146Y-2722422D01*
X5655970Y-2713126D01*
X5643727Y-2705354D01*
X5630570Y-2699207D01*
X5616752Y-2694686D01*
X5602478Y-2691993D01*
X5588000Y-2691079D01*
X5573522Y-2691993D01*
X5559247Y-2694686D01*
X5545429Y-2699207D01*
X5532272Y-2705354D01*
X5520029Y-2713126D01*
X5508853Y-2722422D01*
X5498896Y-2732989D01*
X5490362Y-2744724D01*
X5483352Y-2757474D01*
X5478018Y-2770987D01*
X5474411Y-2785008D01*
X5472582Y-2799435D01*
X5472582Y-2813964D01*
X5474411Y-2828391D01*
X5478018Y-2842412D01*
X5483352Y-2855925D01*
X5490362Y-2868676D01*
X5498896Y-2880410D01*
X5508853Y-2890977D01*
X5520029Y-2900273D01*
X5532272Y-2908046D01*
X5545429Y-2914192D01*
X5559247Y-2918714D01*
X5573522Y-2921406D01*
X5588000Y-2922320D01*
X5602478Y-2921406D01*
X5616752Y-2918714D01*
X5630570Y-2914192D01*
X5635396Y-2912872D01*
X5639460Y-2913583D01*
X5642914Y-2915818D01*
X5725617Y-2998571D01*
X5731814Y-3003651D01*
X5738418Y-3007207D01*
X5745632Y-3009392D01*
X5753608Y-3010154D01*
X6425082Y-3010154D01*
X6428689Y-3010814D01*
X6431838Y-3012744D01*
X6434124Y-3015640D01*
X6435191Y-3019196D01*
X6435547Y-3022498D01*
X6437426Y-3027883D01*
X6440474Y-3032760D01*
X6444538Y-3036824D01*
X6448450Y-3039262D01*
X6451549Y-3042310D01*
X6453073Y-3046323D01*
X6452819Y-3050641D01*
X6450787Y-3054451D01*
X6448704Y-3056890D01*
X6445250Y-3059531D01*
X6440982Y-3060446D01*
X2351836Y-3060446D01*
X2348077Y-3059734D01*
X2344877Y-3057652D01*
X2342642Y-3054553D01*
X2337206Y-3042869D01*
X2329891Y-3031388D01*
X2321102Y-3021025D01*
X2310993Y-3011881D01*
X2299817Y-3004159D01*
X2287676Y-2998063D01*
X2274824Y-2993593D01*
X2261463Y-2990900D01*
X2247900Y-2989986D01*
X2234336Y-2990900D01*
X2220976Y-2993593D01*
X2208123Y-2998063D01*
X2195982Y-3004159D01*
X2184806Y-3011881D01*
X2174697Y-3021025D01*
X2165908Y-3031388D01*
X2158593Y-3042869D01*
X2152853Y-3055213D01*
X2148840Y-3068218D01*
X2146604Y-3081629D01*
X2146147Y-3095193D01*
X2147468Y-3108756D01*
X2150618Y-3121964D01*
X2155545Y-3134664D01*
X2162048Y-3146602D01*
X2170125Y-3157524D01*
X2179574Y-3167329D01*
X2190292Y-3175762D01*
X2201976Y-3182670D01*
X2214473Y-3188004D01*
X2227630Y-3191611D01*
X2241092Y-3193389D01*
X2254707Y-3193389D01*
X2268169Y-3191611D01*
X2281326Y-3188004D01*
X2293823Y-3182670D01*
X2305507Y-3175762D01*
X2316226Y-3167329D01*
X2325674Y-3157524D01*
X2333752Y-3146602D01*
X2336038Y-3142437D01*
X2338273Y-3139643D01*
X2341372Y-3137814D01*
X2344928Y-3137154D01*
X5951778Y-3137154D01*
X5955690Y-3137916D01*
X5958941Y-3140151D01*
X6447434Y-3628593D01*
X6449720Y-3632098D01*
X6450431Y-3636162D01*
X6449923Y-3649675D01*
X6451244Y-3662222D01*
X6454292Y-3674516D01*
X6459067Y-3686251D01*
X6465366Y-3697173D01*
X6473139Y-3707129D01*
X6482232Y-3715918D01*
X6492494Y-3723335D01*
X6503619Y-3729278D01*
X6515506Y-3733596D01*
X6527901Y-3736238D01*
G37*
G36*
X1587500Y-3671519D02*
G01*
X1601266Y-3670655D01*
X1614830Y-3667963D01*
X1627936Y-3663492D01*
X1640332Y-3657396D01*
X1651812Y-3649726D01*
X1662175Y-3640582D01*
X1671320Y-3630218D01*
X1678990Y-3618737D01*
X1685086Y-3606342D01*
X1689557Y-3593236D01*
X1692249Y-3579672D01*
X1693113Y-3565906D01*
X1692249Y-3552139D01*
X1689557Y-3538575D01*
X1685086Y-3525469D01*
X1678990Y-3513074D01*
X1671320Y-3501593D01*
X1662175Y-3491229D01*
X1651812Y-3482086D01*
X1640332Y-3474415D01*
X1627936Y-3468319D01*
X1614830Y-3463848D01*
X1601266Y-3461156D01*
X1587500Y-3460292D01*
X1573733Y-3461156D01*
X1560169Y-3463848D01*
X1547063Y-3468319D01*
X1534668Y-3474415D01*
X1523187Y-3482086D01*
X1512824Y-3491229D01*
X1503680Y-3501593D01*
X1496009Y-3513074D01*
X1489913Y-3525469D01*
X1485442Y-3538575D01*
X1482750Y-3552139D01*
X1481886Y-3565906D01*
X1482750Y-3579672D01*
X1485442Y-3593236D01*
X1489913Y-3606342D01*
X1496009Y-3618737D01*
X1503680Y-3630218D01*
X1512824Y-3640582D01*
X1523187Y-3649726D01*
X1534668Y-3657396D01*
X1547063Y-3663492D01*
X1560169Y-3667963D01*
X1573733Y-3670655D01*
G37*
G36*
X660400Y-3671519D02*
G01*
X674166Y-3670655D01*
X687730Y-3667963D01*
X700836Y-3663492D01*
X713232Y-3657396D01*
X724712Y-3649726D01*
X735076Y-3640582D01*
X744220Y-3630218D01*
X751890Y-3618737D01*
X757986Y-3606342D01*
X762457Y-3593236D01*
X765149Y-3579672D01*
X766013Y-3565906D01*
X765149Y-3552139D01*
X762457Y-3538575D01*
X757986Y-3525469D01*
X751890Y-3513074D01*
X744220Y-3501593D01*
X735076Y-3491229D01*
X724712Y-3482086D01*
X713232Y-3474415D01*
X700836Y-3468319D01*
X687730Y-3463848D01*
X674166Y-3461156D01*
X660400Y-3460292D01*
X646633Y-3461156D01*
X633069Y-3463848D01*
X619963Y-3468319D01*
X607568Y-3474415D01*
X596087Y-3482086D01*
X585724Y-3491229D01*
X576580Y-3501593D01*
X568909Y-3513074D01*
X562813Y-3525469D01*
X558342Y-3538575D01*
X555650Y-3552139D01*
X554786Y-3565906D01*
X555650Y-3579672D01*
X558342Y-3593236D01*
X562813Y-3606342D01*
X568909Y-3618737D01*
X576580Y-3630218D01*
X585724Y-3640582D01*
X596087Y-3649726D01*
X607568Y-3657396D01*
X619963Y-3663492D01*
X633069Y-3667963D01*
X646633Y-3670655D01*
G37*
G36*
X4766360Y-3655669D02*
G01*
X4822139Y-3655669D01*
X4821224Y-3653637D01*
X4813401Y-3640632D01*
X4804054Y-3628694D01*
X4793284Y-3617976D01*
X4781346Y-3608628D01*
X4768392Y-3600754D01*
X4766360Y-3599840D01*
G37*
G36*
X4597857Y-3655669D02*
G01*
X4653635Y-3655669D01*
X4653635Y-3599840D01*
X4651603Y-3600754D01*
X4638649Y-3608628D01*
X4626711Y-3617976D01*
X4615942Y-3628694D01*
X4606594Y-3640632D01*
X4598771Y-3653637D01*
G37*
G36*
X5536641Y-3379978D02*
G01*
X5536641Y-3327958D01*
X5484520Y-3327958D01*
X5490362Y-3338576D01*
X5498896Y-3350310D01*
X5508853Y-3360877D01*
X5520029Y-3370173D01*
X5532272Y-3377946D01*
G37*
G36*
X5639358Y-3379978D02*
G01*
X5643727Y-3377946D01*
X5655970Y-3370173D01*
X5667146Y-3360877D01*
X5677103Y-3350310D01*
X5685637Y-3338576D01*
X5691479Y-3327958D01*
X5639358Y-3327958D01*
G37*
G36*
X706729Y-3310585D02*
G01*
X713232Y-3307384D01*
X724712Y-3299714D01*
X735076Y-3290570D01*
X744220Y-3280206D01*
X751890Y-3268726D01*
X755091Y-3262223D01*
X706729Y-3262223D01*
G37*
G36*
X1541170Y-3310585D02*
G01*
X1541170Y-3262223D01*
X1492808Y-3262223D01*
X1496009Y-3268726D01*
X1503680Y-3280206D01*
X1512824Y-3290570D01*
X1523187Y-3299714D01*
X1534668Y-3307384D01*
G37*
G36*
X1633829Y-3310585D02*
G01*
X1640332Y-3307384D01*
X1651812Y-3299714D01*
X1662175Y-3290570D01*
X1671320Y-3280206D01*
X1678990Y-3268726D01*
X1682191Y-3262223D01*
X1633829Y-3262223D01*
G37*
G36*
X614070Y-3310585D02*
G01*
X614070Y-3262223D01*
X565708Y-3262223D01*
X568909Y-3268726D01*
X576580Y-3280206D01*
X585724Y-3290570D01*
X596087Y-3299714D01*
X607568Y-3307384D01*
G37*
G36*
X6494170Y-3295497D02*
G01*
X6494170Y-3254654D01*
X6441236Y-3254654D01*
X6442557Y-3257854D01*
X6448348Y-3267303D01*
X6455562Y-3275736D01*
X6463995Y-3282950D01*
X6473444Y-3288741D01*
X6483654Y-3292957D01*
G37*
G36*
X6586829Y-3295497D02*
G01*
X6597345Y-3292957D01*
X6607556Y-3288741D01*
X6617004Y-3282950D01*
X6625437Y-3275736D01*
X6632651Y-3267303D01*
X6638442Y-3257854D01*
X6639763Y-3254654D01*
X6586829Y-3254654D01*
G37*
G36*
X5639358Y-3225241D02*
G01*
X5691479Y-3225241D01*
X5685637Y-3214624D01*
X5677103Y-3202889D01*
X5667146Y-3192322D01*
X5655970Y-3183026D01*
X5643727Y-3175254D01*
X5639358Y-3173222D01*
G37*
G36*
X5484520Y-3225241D02*
G01*
X5536641Y-3225241D01*
X5536641Y-3173222D01*
X5532272Y-3175254D01*
X5520029Y-3183026D01*
X5508853Y-3192322D01*
X5498896Y-3202889D01*
X5490362Y-3214624D01*
G37*
G36*
X706729Y-3169564D02*
G01*
X755091Y-3169564D01*
X751890Y-3163062D01*
X744220Y-3151581D01*
X735076Y-3141218D01*
X724712Y-3132074D01*
X713232Y-3124403D01*
X706729Y-3121202D01*
G37*
G36*
X1492808Y-3169564D02*
G01*
X1541170Y-3169564D01*
X1541170Y-3121202D01*
X1534668Y-3124403D01*
X1523187Y-3132074D01*
X1512824Y-3141218D01*
X1503680Y-3151581D01*
X1496009Y-3163062D01*
G37*
G36*
X1633829Y-3169564D02*
G01*
X1682191Y-3169564D01*
X1678990Y-3163062D01*
X1671320Y-3151581D01*
X1662175Y-3141218D01*
X1651812Y-3132074D01*
X1640332Y-3124403D01*
X1633829Y-3121202D01*
G37*
G36*
X565708Y-3169564D02*
G01*
X614070Y-3169564D01*
X614070Y-3121202D01*
X607568Y-3124403D01*
X596087Y-3132074D01*
X585724Y-3141218D01*
X576580Y-3151581D01*
X568909Y-3163062D01*
G37*
G36*
X5588000Y-2668320D02*
G01*
X5602478Y-2667406D01*
X5616752Y-2664714D01*
X5630570Y-2660192D01*
X5643727Y-2654046D01*
X5655970Y-2646273D01*
X5667146Y-2636977D01*
X5677103Y-2626410D01*
X5685637Y-2614676D01*
X5692648Y-2601925D01*
X5697982Y-2588412D01*
X5701588Y-2574391D01*
X5703417Y-2559964D01*
X5703417Y-2545435D01*
X5701588Y-2531008D01*
X5697982Y-2516987D01*
X5692648Y-2503474D01*
X5685637Y-2490724D01*
X5677103Y-2478989D01*
X5667146Y-2468422D01*
X5655970Y-2459126D01*
X5643727Y-2451354D01*
X5630570Y-2445207D01*
X5616752Y-2440686D01*
X5602478Y-2437993D01*
X5588000Y-2437079D01*
X5573522Y-2437993D01*
X5559247Y-2440686D01*
X5545429Y-2445207D01*
X5532272Y-2451354D01*
X5520029Y-2459126D01*
X5508853Y-2468422D01*
X5498896Y-2478989D01*
X5490362Y-2490724D01*
X5483352Y-2503474D01*
X5478018Y-2516987D01*
X5474411Y-2531008D01*
X5472582Y-2545435D01*
X5472582Y-2559964D01*
X5474411Y-2574391D01*
X5478018Y-2588412D01*
X5483352Y-2601925D01*
X5490362Y-2614676D01*
X5498896Y-2626410D01*
X5508853Y-2636977D01*
X5520029Y-2646273D01*
X5532272Y-2654046D01*
X5545429Y-2660192D01*
X5559247Y-2664714D01*
X5573522Y-2667406D01*
G37*
G36*
X6060541Y-2655417D02*
G01*
X6075070Y-2655417D01*
X6089446Y-2653588D01*
X6103518Y-2649982D01*
X6117031Y-2644648D01*
X6129782Y-2637637D01*
X6141516Y-2629103D01*
X6152083Y-2619146D01*
X6161328Y-2607970D01*
X6169152Y-2595727D01*
X6175298Y-2582570D01*
X6179820Y-2568752D01*
X6182512Y-2554478D01*
X6183426Y-2540000D01*
X6182512Y-2525522D01*
X6179820Y-2511247D01*
X6175298Y-2497429D01*
X6169152Y-2484272D01*
X6161328Y-2472029D01*
X6152083Y-2460853D01*
X6141516Y-2450896D01*
X6129782Y-2442362D01*
X6117031Y-2435352D01*
X6103518Y-2430018D01*
X6089446Y-2426411D01*
X6075070Y-2424582D01*
X6060541Y-2424582D01*
X6046114Y-2426411D01*
X6032093Y-2430018D01*
X6018580Y-2435352D01*
X6005830Y-2442362D01*
X5994095Y-2450896D01*
X5983528Y-2460853D01*
X5974232Y-2472029D01*
X5966460Y-2484272D01*
X5960262Y-2497429D01*
X5955792Y-2511247D01*
X5953099Y-2525522D01*
X5952185Y-2540000D01*
X5953099Y-2554478D01*
X5955792Y-2568752D01*
X5960262Y-2582570D01*
X5966460Y-2595727D01*
X5974232Y-2607970D01*
X5983528Y-2619146D01*
X5994095Y-2629103D01*
X6005830Y-2637637D01*
X6018580Y-2644648D01*
X6032093Y-2649982D01*
X6046114Y-2653588D01*
G37*
G36*
X5498592Y-2403094D02*
G01*
X5677408Y-2403094D01*
X5683707Y-2402382D01*
X5689092Y-2400503D01*
X5693968Y-2397455D01*
X5697982Y-2393391D01*
X5701080Y-2388565D01*
X5702960Y-2383129D01*
X5703671Y-2376881D01*
X5703671Y-2220518D01*
X5702960Y-2214270D01*
X5701080Y-2208834D01*
X5697982Y-2204008D01*
X5693968Y-2199944D01*
X5689092Y-2196896D01*
X5683707Y-2195017D01*
X5677408Y-2194306D01*
X5498592Y-2194306D01*
X5492292Y-2195017D01*
X5486908Y-2196896D01*
X5482031Y-2199944D01*
X5478018Y-2204008D01*
X5474970Y-2208834D01*
X5473039Y-2214270D01*
X5472328Y-2220518D01*
X5472328Y-2376881D01*
X5473039Y-2383129D01*
X5474970Y-2388565D01*
X5478018Y-2393391D01*
X5482031Y-2397455D01*
X5486908Y-2400503D01*
X5492292Y-2402382D01*
G37*
G36*
X8070596Y-505409D02*
G01*
X8089392Y-505409D01*
X8108086Y-503478D01*
X8126526Y-499719D01*
X8144459Y-494080D01*
X8161731Y-486664D01*
X8178190Y-477520D01*
X8193633Y-466801D01*
X8207908Y-454558D01*
X8220862Y-440943D01*
X8232343Y-426059D01*
X8242300Y-410108D01*
X8250580Y-393192D01*
X8257133Y-375564D01*
X8261858Y-357378D01*
X8264702Y-338785D01*
X8265617Y-319989D01*
X8264702Y-301193D01*
X8261858Y-282651D01*
X8257133Y-264414D01*
X8250580Y-246786D01*
X8242300Y-229920D01*
X8232343Y-213969D01*
X8220862Y-199085D01*
X8207908Y-185470D01*
X8193633Y-173177D01*
X8178190Y-162458D01*
X8161731Y-153314D01*
X8144459Y-145897D01*
X8126526Y-140309D01*
X8108086Y-136499D01*
X8089392Y-134620D01*
X8070596Y-134620D01*
X8051901Y-136499D01*
X8033461Y-140309D01*
X8015528Y-145897D01*
X7998256Y-153314D01*
X7981797Y-162458D01*
X7966354Y-173177D01*
X7952079Y-185470D01*
X7939125Y-199085D01*
X7927644Y-213969D01*
X7917688Y-229920D01*
X7909407Y-246786D01*
X7902854Y-264414D01*
X7898180Y-282651D01*
X7895336Y-301193D01*
X7894370Y-319989D01*
X7895336Y-338785D01*
X7898180Y-357378D01*
X7902854Y-375564D01*
X7909407Y-393192D01*
X7917688Y-410108D01*
X7927644Y-426059D01*
X7939125Y-440943D01*
X7952079Y-454558D01*
X7966354Y-466801D01*
X7981797Y-477520D01*
X7998256Y-486664D01*
X8015528Y-494080D01*
X8033461Y-499719D01*
X8051901Y-503478D01*
G37*

%LPD*%
D23*
X1744979Y-2433320D02*
G01*
X1744979Y-1811020D01*
X2044700Y-1511300D01*
X4109999Y-352005D02*
G01*
X2028685Y-2433320D01*
X1744979Y-2433320D01*
X1003300Y-2232660D02*
G01*
X1003300Y-1516126D01*
X1003300Y-1516126D02*
G01*
X1262126Y-1257300D01*
X2604770Y-1257300D01*
X3510025Y-352044D01*
D10*
X5588000Y-3530600D02*
G01*
X5461000Y-3530600D01*
X5143500Y-3848100D01*
X5143500Y-4584700D01*
X2603500Y-7124700D01*
X6997700Y-7117334D02*
G01*
X6997700Y-7366000D01*
X6870700Y-7493000D01*
X2311400Y-7493000D01*
X2095500Y-7277100D01*
X2095500Y-7124700D01*
X7251700Y-7117334D02*
G01*
X7251700Y-7366000D01*
X6985000Y-7632700D01*
X1943100Y-7632700D01*
X1587500Y-7277100D01*
X1587500Y-7124700D01*
X6540500Y-2971800D02*
G01*
X6555993Y-2971800D01*
X6987793Y-2540000D01*
X6540500Y-3646500D02*
G01*
X6519578Y-3646500D01*
X5971877Y-3098800D01*
X6540500Y-2971800D02*
G01*
X5753100Y-2971800D01*
X5588000Y-2806700D01*
X2247900Y-3091792D02*
G01*
X2254907Y-3098800D01*
X6540500Y-3098800D01*
X7251700Y-4617465D02*
G01*
X7251700Y-5080000D01*
X6731000Y-5600700D01*
X5588000Y-5600700D01*
X5588000Y-5346700D02*
G01*
X4673600Y-5346700D01*
X3619500Y-6400800D01*
X3619500Y-7124700D01*
X5588000Y-5842000D02*
G01*
X5372100Y-5842000D01*
X4635500Y-6578600D01*
X4635500Y-7124700D01*
D23*
X1003300Y-1016000D02*
G01*
X2032000Y-1016000D01*
X2044700Y-1003300D01*
D12*
G01*
X6235700Y-7137400D03*
D13*
G01*
X6489700Y-7137400D03*
G01*
X6743700Y-7137400D03*
G01*
X6997700Y-7137400D03*
G01*
X7251700Y-7137400D03*
G01*
X7505700Y-7137400D03*
G01*
X7759700Y-7137400D03*
G01*
X8013700Y-7137400D03*
G01*
X8013700Y-4597400D03*
G01*
X7759700Y-4597400D03*
G01*
X7505700Y-4597400D03*
G01*
X7251700Y-4597400D03*
G01*
X6997700Y-4597400D03*
G01*
X6743700Y-4597400D03*
G01*
X6489700Y-4597400D03*
G01*
X6235700Y-4597400D03*
D14*
G01*
X995679Y-2232660D03*
G01*
X1744979Y-2433320D03*
D15*
G01*
X5588000Y-3276600D03*
G01*
X5588000Y-3530600D03*
D16*
G01*
X5588000Y-3784600D03*
D15*
G01*
X5588000Y-4229100D03*
G01*
X5588000Y-4483100D03*
D16*
G01*
X5588000Y-4737100D03*
D15*
G01*
X5588000Y-2806700D03*
G01*
X5588000Y-2552700D03*
D16*
G01*
X5588000Y-2298700D03*
D17*
G01*
X660400Y-3215894D03*
G01*
X660400Y-3565905D03*
G01*
X1587500Y-3215894D03*
G01*
X1587500Y-3565905D03*
D18*
G01*
X2044700Y-1511300D03*
G01*
X2044700Y-1003300D03*
D19*
G01*
X5588000Y-5346700D03*
D15*
G01*
X5588000Y-5600700D03*
G01*
X5588000Y-5854700D03*
G01*
X5588000Y-6108700D03*
G01*
X5588000Y-6362700D03*
G01*
X5588000Y-6616700D03*
G01*
X5588000Y-6870700D03*
G01*
X5588000Y-7124700D03*
D18*
G01*
X1003300Y-1016000D03*
G01*
X1003300Y-1516126D03*
D15*
G01*
X6067806Y-2540000D03*
G01*
X6987793Y-2540000D03*
D18*
G01*
X2910001Y-3712006D03*
G01*
X4709998Y-3712006D03*
G01*
X3510000Y-352018D03*
G01*
X4109999Y-352018D03*
D13*
G01*
X2247900Y-4121810D03*
G01*
X2247900Y-3091789D03*
G01*
X4635500Y-4584700D03*
G01*
X4381500Y-4584700D03*
G01*
X4127500Y-4584700D03*
G01*
X3873500Y-4584700D03*
G01*
X3619500Y-4584700D03*
G01*
X3365500Y-4584700D03*
G01*
X3111500Y-4584700D03*
G01*
X2857500Y-4584700D03*
G01*
X2603500Y-4584700D03*
G01*
X2349500Y-4584700D03*
G01*
X2095500Y-4584700D03*
G01*
X1841500Y-4584700D03*
G01*
X1587500Y-4584700D03*
G01*
X1333500Y-4584700D03*
G01*
X1079500Y-4584700D03*
G01*
X1079500Y-7124700D03*
G01*
X1333500Y-7124700D03*
G01*
X1587500Y-7124700D03*
G01*
X1841500Y-7124700D03*
G01*
X2095500Y-7124700D03*
G01*
X2349500Y-7124700D03*
G01*
X2603500Y-7124700D03*
G01*
X2857500Y-7124700D03*
G01*
X3111500Y-7124700D03*
G01*
X3365500Y-7124700D03*
G01*
X3619500Y-7124700D03*
G01*
X3873500Y-7124700D03*
G01*
X4127500Y-7124700D03*
G01*
X4381500Y-7124700D03*
G01*
X4635500Y-7124700D03*
D20*
G01*
X6540500Y-3646500D03*
G01*
X6540500Y-3846499D03*
D21*
G01*
X6540500Y-2971800D03*
D22*
X6575501Y-3225800D02*
G01*
X6505501Y-3225800D01*
X6575501Y-3098800D02*
G01*
X6505501Y-3098800D01*
M02*
