M48
METRIC,LZ,000.000
;FILE_FORMAT=3:3
;TYPE=PLATED
;Layer: Drill PTH
;EasyEDA v6.4.17, 2021-03-27T11:51:15+01:00
;529596ce29184b6dae0a6c6abc880a80,a5e8219e36ff45ba9783bf595b991e38,10
;Gerber Generator version 0.2
;Holesize 1 = 0.701 mm
T01C0.701
;Holesize 2 = 0.800 mm
T02C0.800
;Holesize 3 = 0.915 mm
T03C0.915
;Holesize 4 = 1.000 mm
T04C1.000
;Holesize 5 = 1.200 mm
T05C1.200
;Holesize 6 = 1.220 mm
T06C1.220
;Holesize 7 = 1.301 mm
T07C1.301
%
G05
G90
T01
X065405Y-032258
X065405Y-030988
X065405Y-029718
T02
X065405Y-036465
X065405Y-038465
T03
X062357Y-071374
X064897Y-071374
X067437Y-071374
X069977Y-071374
X072517Y-071374
X075057Y-071374
X077597Y-071374
X080137Y-071374
X080137Y-045974
X077597Y-045974
X075057Y-045974
X072517Y-045974
X069977Y-045974
X067437Y-045974
X064897Y-045974
X062357Y-045974
X046355Y-045847
X043815Y-045847
X041275Y-045847
X038735Y-045847
X036195Y-045847
X033655Y-045847
X031115Y-045847
X028575Y-045847
X026035Y-045847
X023495Y-045847
X020955Y-045847
X018415Y-045847
X015875Y-045847
X013335Y-045847
X010795Y-045847
X010795Y-071247
X013335Y-071247
X015875Y-071247
X018415Y-071247
X020955Y-071247
X023495Y-071247
X026035Y-071247
X028575Y-071247
X031115Y-071247
X033655Y-071247
X036195Y-071247
X038735Y-071247
X041275Y-071247
X043815Y-071247
X046355Y-071247
T04
X006604Y-032159
X006604Y-035659
X015875Y-032159
X015875Y-035659
X060678Y-025400
X069878Y-025400
X022479Y-041218
X022479Y-030918
T05
X055880Y-032766
X055880Y-035306
X055880Y-037846
X055880Y-042291
X055880Y-044831
X055880Y-047371
X055880Y-028067
X055880Y-025527
X055880Y-022987
X020447Y-015113
X020447Y-010033
X055880Y-053467
X055880Y-056007
X055880Y-058547
X055880Y-061087
X055880Y-063627
X055880Y-066167
X055880Y-068707
X055880Y-071247
X029100Y-037120
X047100Y-037120
X035100Y-003520
X041100Y-003520
T06
X009957Y-022327
X017450Y-024333
T07
X010033Y-010160
X010033Y-015161
M30
