G04 Layer: BottomSolderMaskLayer*
G04 EasyEDA v6.4.17, 2021-03-27T11:51:15+01:00*
G04 529596ce29184b6dae0a6c6abc880a80,a5e8219e36ff45ba9783bf595b991e38,10*
G04 Gerber Generator version 0.2*
G04 Scale: 100 percent, Rotated: No, Reflected: No *
G04 Dimensions in millimeters *
G04 leading zeros omitted , absolute positions ,4 integer and 5 decimal *
%FSLAX45Y45*%
%MOMM*%

%ADD28C,1.1032*%
%ADD29R,1.7272X1.7272*%
%ADD30C,1.7272*%
%ADD32C,2.0032*%
%ADD34C,1.8032*%
%ADD35C,2.2032*%
%ADD37C,1.5032*%

%LPD*%
D28*
X6575501Y-3225800D02*
G01*
X6505501Y-3225800D01*
X6575501Y-3098800D02*
G01*
X6505501Y-3098800D01*
D29*
G01*
X6235700Y-7137400D03*
D30*
G01*
X6489700Y-7137400D03*
G01*
X6743700Y-7137400D03*
G01*
X6997700Y-7137400D03*
G01*
X7251700Y-7137400D03*
G01*
X7505700Y-7137400D03*
G01*
X7759700Y-7137400D03*
G01*
X8013700Y-7137400D03*
G01*
X8013700Y-4597400D03*
G01*
X7759700Y-4597400D03*
G01*
X7505700Y-4597400D03*
G01*
X7251700Y-4597400D03*
G01*
X6997700Y-4597400D03*
G01*
X6743700Y-4597400D03*
G01*
X6489700Y-4597400D03*
G01*
X6235700Y-4597400D03*
G36*
X875029Y-2343150D02*
G01*
X875029Y-2122170D01*
X1116329Y-2122170D01*
X1116329Y-2343150D01*
G37*
G36*
X1624329Y-2543810D02*
G01*
X1624329Y-2322829D01*
X1865629Y-2322829D01*
X1865629Y-2543810D01*
G37*
D32*
G01*
X5588000Y-3276600D03*
G01*
X5588000Y-3530600D03*
G36*
X5487924Y-3873500D02*
G01*
X5487924Y-3695700D01*
X5688075Y-3695700D01*
X5688075Y-3873500D01*
G37*
G01*
X5588000Y-4229100D03*
G01*
X5588000Y-4483100D03*
G36*
X5487924Y-4826000D02*
G01*
X5487924Y-4648200D01*
X5688075Y-4648200D01*
X5688075Y-4826000D01*
G37*
G01*
X5588000Y-2806700D03*
G01*
X5588000Y-2552700D03*
G36*
X5487924Y-2387600D02*
G01*
X5487924Y-2209800D01*
X5688075Y-2209800D01*
X5688075Y-2387600D01*
G37*
D34*
G01*
X660400Y-3215894D03*
G01*
X660400Y-3565905D03*
G01*
X1587500Y-3215894D03*
G01*
X1587500Y-3565905D03*
D35*
G01*
X2044700Y-1511300D03*
G01*
X2044700Y-1003300D03*
G36*
X5487924Y-5446776D02*
G01*
X5487924Y-5246623D01*
X5688075Y-5246623D01*
X5688075Y-5446776D01*
G37*
D32*
G01*
X5588000Y-5600700D03*
G01*
X5588000Y-5854700D03*
G01*
X5588000Y-6108700D03*
G01*
X5588000Y-6362700D03*
G01*
X5588000Y-6616700D03*
G01*
X5588000Y-6870700D03*
G01*
X5588000Y-7124700D03*
D35*
G01*
X1003300Y-1016000D03*
G01*
X1003300Y-1516126D03*
D32*
G01*
X6067806Y-2540000D03*
G01*
X6987793Y-2540000D03*
D35*
G01*
X2910001Y-3712006D03*
G01*
X4709998Y-3712006D03*
G01*
X3510000Y-352018D03*
G01*
X4109999Y-352018D03*
D30*
G01*
X2247900Y-4121810D03*
G01*
X2247900Y-3091789D03*
G01*
X4635500Y-4584700D03*
G01*
X4381500Y-4584700D03*
G01*
X4127500Y-4584700D03*
G01*
X3873500Y-4584700D03*
G01*
X3619500Y-4584700D03*
G01*
X3365500Y-4584700D03*
G01*
X3111500Y-4584700D03*
G01*
X2857500Y-4584700D03*
G01*
X2603500Y-4584700D03*
G01*
X2349500Y-4584700D03*
G01*
X2095500Y-4584700D03*
G01*
X1841500Y-4584700D03*
G01*
X1587500Y-4584700D03*
G01*
X1333500Y-4584700D03*
G01*
X1079500Y-4584700D03*
G01*
X1079500Y-7124700D03*
G01*
X1333500Y-7124700D03*
G01*
X1587500Y-7124700D03*
G01*
X1841500Y-7124700D03*
G01*
X2095500Y-7124700D03*
G01*
X2349500Y-7124700D03*
G01*
X2603500Y-7124700D03*
G01*
X2857500Y-7124700D03*
G01*
X3111500Y-7124700D03*
G01*
X3365500Y-7124700D03*
G01*
X3619500Y-7124700D03*
G01*
X3873500Y-7124700D03*
G01*
X4127500Y-7124700D03*
G01*
X4381500Y-7124700D03*
G01*
X4635500Y-7124700D03*
D37*
G01*
X6540500Y-3646500D03*
G01*
X6540500Y-3846499D03*
G36*
X6450329Y-3026918D02*
G01*
X6450329Y-2916681D01*
X6630670Y-2916681D01*
X6630670Y-3026918D01*
G37*
M02*
